<?xml version="1.0" encoding="UTF-8"?>
<svg xmlns="http://www.w3.org/2000/svg" xmlns:xlink="http://www.w3.org/1999/xlink" width="450pt" height="338pt" viewBox="0 0 450 338" version="1.1">
<g id="surface1-665456f7">
<path style=" stroke:none;fill-rule:nonzero;fill:rgb(100%,100%,100%);fill-opacity:1;" d="M 0 0 L 450 0 L 450 337.5 L 0 337.5 Z M 0 0 "/>
<path style="fill:none;stroke-width:3;stroke-linecap:butt;stroke-linejoin:miter;stroke:rgb(0%,0%,0%);stroke-opacity:1;stroke-miterlimit:2;" d="M 41.817708 225 L 67.635417 225 " transform="matrix(0.75,0,0,0.75,0,0)"/>
<path style="fill:none;stroke-width:3;stroke-linecap:butt;stroke-linejoin:miter;stroke:rgb(0%,0%,0%);stroke-opacity:1;stroke-miterlimit:2;" d="M 67.635417 225 L 93.453125 225 " transform="matrix(0.75,0,0,0.75,0,0)"/>
<path style="fill:none;stroke-width:3;stroke-linecap:butt;stroke-linejoin:miter;stroke:rgb(0%,0%,0%);stroke-opacity:1;stroke-miterlimit:2;" d="M 93.453125 225 L 119.270833 225 " transform="matrix(0.75,0,0,0.75,0,0)"/>
<path style="fill:none;stroke-width:3;stroke-linecap:butt;stroke-linejoin:miter;stroke:rgb(0%,0%,0%);stroke-opacity:1;stroke-miterlimit:2;" d="M 119.270833 225 L 145.088542 225 " transform="matrix(0.75,0,0,0.75,0,0)"/>
<path style="fill:none;stroke-width:3;stroke-linecap:butt;stroke-linejoin:miter;stroke:rgb(0%,0%,0%);stroke-opacity:1;stroke-miterlimit:2;" d="M 145.088542 225 L 170.911458 225 " transform="matrix(0.75,0,0,0.75,0,0)"/>
<path style="fill:none;stroke-width:3;stroke-linecap:butt;stroke-linejoin:miter;stroke:rgb(0%,0%,0%);stroke-opacity:1;stroke-miterlimit:2;" d="M 170.911458 225 L 196.729167 225 " transform="matrix(0.75,0,0,0.75,0,0)"/>
<path style="fill:none;stroke-width:3;stroke-linecap:butt;stroke-linejoin:miter;stroke:rgb(0%,0%,0%);stroke-opacity:1;stroke-miterlimit:2;" d="M 196.729167 225 L 222.546875 225 " transform="matrix(0.75,0,0,0.75,0,0)"/>
<path style="fill:none;stroke-width:3;stroke-linecap:butt;stroke-linejoin:miter;stroke:rgb(0%,0%,0%);stroke-opacity:1;stroke-miterlimit:2;" d="M 222.546875 225 L 248.364583 225 " transform="matrix(0.75,0,0,0.75,0,0)"/>
<path style="fill:none;stroke-width:3;stroke-linecap:butt;stroke-linejoin:miter;stroke:rgb(0%,0%,0%);stroke-opacity:1;stroke-miterlimit:2;" d="M 248.364583 225 L 274.182292 225 " transform="matrix(0.75,0,0,0.75,0,0)"/>
<path style="fill:none;stroke-width:3;stroke-linecap:butt;stroke-linejoin:miter;stroke:rgb(0%,0%,0%);stroke-opacity:1;stroke-miterlimit:2;" d="M 274.182292 225 L 300 225 " transform="matrix(0.75,0,0,0.75,0,0)"/>
<path style="fill:none;stroke-width:3;stroke-linecap:butt;stroke-linejoin:miter;stroke:rgb(0%,0%,0%);stroke-opacity:1;stroke-miterlimit:2;" d="M 300 225 L 325.817708 225 " transform="matrix(0.75,0,0,0.75,0,0)"/>
<path style="fill:none;stroke-width:3;stroke-linecap:butt;stroke-linejoin:miter;stroke:rgb(0%,0%,0%);stroke-opacity:1;stroke-miterlimit:2;" d="M 325.817708 225 L 351.635417 225 " transform="matrix(0.75,0,0,0.75,0,0)"/>
<path style="fill:none;stroke-width:3;stroke-linecap:butt;stroke-linejoin:miter;stroke:rgb(0%,0%,0%);stroke-opacity:1;stroke-miterlimit:2;" d="M 351.635417 225 L 377.453125 225 " transform="matrix(0.75,0,0,0.75,0,0)"/>
<path style="fill:none;stroke-width:3;stroke-linecap:butt;stroke-linejoin:miter;stroke:rgb(0%,0%,0%);stroke-opacity:1;stroke-miterlimit:2;" d="M 377.453125 225 L 403.270833 225 " transform="matrix(0.75,0,0,0.75,0,0)"/>
<path style="fill:none;stroke-width:3;stroke-linecap:butt;stroke-linejoin:miter;stroke:rgb(0%,0%,0%);stroke-opacity:1;stroke-miterlimit:2;" d="M 403.270833 225 L 429.088542 225 " transform="matrix(0.75,0,0,0.75,0,0)"/>
<path style="fill:none;stroke-width:3;stroke-linecap:butt;stroke-linejoin:miter;stroke:rgb(0%,0%,0%);stroke-opacity:1;stroke-miterlimit:2;" d="M 429.088542 225 L 454.911458 225 " transform="matrix(0.75,0,0,0.75,0,0)"/>
<path style="fill:none;stroke-width:3;stroke-linecap:butt;stroke-linejoin:miter;stroke:rgb(0%,0%,0%);stroke-opacity:1;stroke-miterlimit:2;" d="M 454.911458 225 L 480.729167 225 " transform="matrix(0.75,0,0,0.75,0,0)"/>
<path style="fill:none;stroke-width:3;stroke-linecap:butt;stroke-linejoin:miter;stroke:rgb(0%,0%,0%);stroke-opacity:1;stroke-miterlimit:2;" d="M 480.729167 225 L 506.546875 225 " transform="matrix(0.75,0,0,0.75,0,0)"/>
<path style="fill:none;stroke-width:3;stroke-linecap:butt;stroke-linejoin:miter;stroke:rgb(0%,0%,0%);stroke-opacity:1;stroke-miterlimit:2;" d="M 506.546875 225 L 532.364583 225 " transform="matrix(0.75,0,0,0.75,0,0)"/>
<path style="fill:none;stroke-width:3;stroke-linecap:butt;stroke-linejoin:miter;stroke:rgb(0%,0%,0%);stroke-opacity:1;stroke-miterlimit:2;" d="M 532.364583 225 L 558.182292 225 " transform="matrix(0.75,0,0,0.75,0,0)"/>
<path style=" stroke:none;fill-rule:nonzero;fill:rgb(100%,38.82353%,27.843139%);fill-opacity:1;" d="M 33.742188 168.75 C 33.742188 165.578125 28.984375 165.578125 28.984375 168.75 C 28.984375 171.921875 33.742188 171.921875 33.742188 168.75 Z M 33.742188 168.75 "/>
<path style=" stroke:none;fill-rule:nonzero;fill:rgb(100%,38.82353%,27.843139%);fill-opacity:1;" d="M 53.105469 168.75 C 53.105469 165.578125 48.347656 165.578125 48.347656 168.75 C 48.347656 171.921875 53.105469 171.921875 53.105469 168.75 Z M 53.105469 168.75 "/>
<path style=" stroke:none;fill-rule:nonzero;fill:rgb(100%,38.82353%,27.843139%);fill-opacity:1;" d="M 72.46875 168.75 C 72.46875 165.578125 67.710938 165.578125 67.710938 168.75 C 67.710938 171.921875 72.46875 171.921875 72.46875 168.75 Z M 72.46875 168.75 "/>
<path style=" stroke:none;fill-rule:nonzero;fill:rgb(100%,38.82353%,27.843139%);fill-opacity:1;" d="M 91.832031 168.75 C 91.832031 165.578125 87.074219 165.578125 87.074219 168.75 C 87.074219 171.921875 91.832031 171.921875 91.832031 168.75 Z M 91.832031 168.75 "/>
<path style=" stroke:none;fill-rule:nonzero;fill:rgb(100%,38.82353%,27.843139%);fill-opacity:1;" d="M 111.199219 168.75 C 111.199219 165.578125 106.4375 165.578125 106.4375 168.75 C 106.4375 171.921875 111.199219 171.921875 111.199219 168.75 Z M 111.199219 168.75 "/>
<path style=" stroke:none;fill-rule:nonzero;fill:rgb(100%,38.82353%,27.843139%);fill-opacity:1;" d="M 130.5625 168.75 C 130.5625 165.578125 125.800781 165.578125 125.800781 168.75 C 125.800781 171.921875 130.5625 171.921875 130.5625 168.75 Z M 130.5625 168.75 "/>
<path style=" stroke:none;fill-rule:nonzero;fill:rgb(100%,38.82353%,27.843139%);fill-opacity:1;" d="M 149.925781 168.75 C 149.925781 165.578125 145.167969 165.578125 145.167969 168.75 C 145.167969 171.921875 149.925781 171.921875 149.925781 168.75 Z M 149.925781 168.75 "/>
<path style=" stroke:none;fill-rule:nonzero;fill:rgb(100%,38.82353%,27.843139%);fill-opacity:1;" d="M 169.289062 168.75 C 169.289062 165.578125 164.53125 165.578125 164.53125 168.75 C 164.53125 171.921875 169.289062 171.921875 169.289062 168.75 Z M 169.289062 168.75 "/>
<path style=" stroke:none;fill-rule:nonzero;fill:rgb(100%,38.82353%,27.843139%);fill-opacity:1;" d="M 188.652344 168.75 C 188.652344 165.578125 183.894531 165.578125 183.894531 168.75 C 183.894531 171.921875 188.652344 171.921875 188.652344 168.75 Z M 188.652344 168.75 "/>
<path style=" stroke:none;fill-rule:nonzero;fill:rgb(100%,38.82353%,27.843139%);fill-opacity:1;" d="M 208.015625 168.75 C 208.015625 165.578125 203.257812 165.578125 203.257812 168.75 C 203.257812 171.921875 208.015625 171.921875 208.015625 168.75 Z M 208.015625 168.75 "/>
<path style=" stroke:none;fill-rule:nonzero;fill:rgb(100%,38.82353%,27.843139%);fill-opacity:1;" d="M 227.378906 168.75 C 227.378906 165.578125 222.621094 165.578125 222.621094 168.75 C 222.621094 171.921875 227.378906 171.921875 227.378906 168.75 Z M 227.378906 168.75 "/>
<path style=" stroke:none;fill-rule:nonzero;fill:rgb(100%,38.82353%,27.843139%);fill-opacity:1;" d="M 246.742188 168.75 C 246.742188 165.578125 241.984375 165.578125 241.984375 168.75 C 241.984375 171.921875 246.742188 171.921875 246.742188 168.75 Z M 246.742188 168.75 "/>
<path style=" stroke:none;fill-rule:nonzero;fill:rgb(100%,38.82353%,27.843139%);fill-opacity:1;" d="M 266.105469 168.75 C 266.105469 165.578125 261.347656 165.578125 261.347656 168.75 C 261.347656 171.921875 266.105469 171.921875 266.105469 168.75 Z M 266.105469 168.75 "/>
<path style=" stroke:none;fill-rule:nonzero;fill:rgb(100%,38.82353%,27.843139%);fill-opacity:1;" d="M 285.46875 168.75 C 285.46875 165.578125 280.710938 165.578125 280.710938 168.75 C 280.710938 171.921875 285.46875 171.921875 285.46875 168.75 Z M 285.46875 168.75 "/>
<path style=" stroke:none;fill-rule:nonzero;fill:rgb(100%,38.82353%,27.843139%);fill-opacity:1;" d="M 304.832031 168.75 C 304.832031 165.578125 300.074219 165.578125 300.074219 168.75 C 300.074219 171.921875 304.832031 171.921875 304.832031 168.75 Z M 304.832031 168.75 "/>
<path style=" stroke:none;fill-rule:nonzero;fill:rgb(100%,38.82353%,27.843139%);fill-opacity:1;" d="M 324.199219 168.75 C 324.199219 165.578125 319.4375 165.578125 319.4375 168.75 C 319.4375 171.921875 324.199219 171.921875 324.199219 168.75 Z M 324.199219 168.75 "/>
<path style=" stroke:none;fill-rule:nonzero;fill:rgb(100%,38.82353%,27.843139%);fill-opacity:1;" d="M 343.5625 168.75 C 343.5625 165.578125 338.800781 165.578125 338.800781 168.75 C 338.800781 171.921875 343.5625 171.921875 343.5625 168.75 Z M 343.5625 168.75 "/>
<path style=" stroke:none;fill-rule:nonzero;fill:rgb(100%,38.82353%,27.843139%);fill-opacity:1;" d="M 362.925781 168.75 C 362.925781 165.578125 358.167969 165.578125 358.167969 168.75 C 358.167969 171.921875 362.925781 171.921875 362.925781 168.75 Z M 362.925781 168.75 "/>
<path style=" stroke:none;fill-rule:nonzero;fill:rgb(100%,38.82353%,27.843139%);fill-opacity:1;" d="M 382.289062 168.75 C 382.289062 165.578125 377.53125 165.578125 377.53125 168.75 C 377.53125 171.921875 382.289062 171.921875 382.289062 168.75 Z M 382.289062 168.75 "/>
<path style=" stroke:none;fill-rule:nonzero;fill:rgb(100%,38.82353%,27.843139%);fill-opacity:1;" d="M 401.652344 168.75 C 401.652344 165.578125 396.894531 165.578125 396.894531 168.75 C 396.894531 171.921875 401.652344 171.921875 401.652344 168.75 Z M 401.652344 168.75 "/>
<path style=" stroke:none;fill-rule:nonzero;fill:rgb(100%,38.82353%,27.843139%);fill-opacity:1;" d="M 421.015625 168.75 C 421.015625 165.578125 416.257812 165.578125 416.257812 168.75 C 416.257812 171.921875 421.015625 171.921875 421.015625 168.75 Z M 421.015625 168.75 "/>
</g>
</svg>
