<?xml version="1.0" encoding="UTF-8"?>
<svg xmlns="http://www.w3.org/2000/svg" xmlns:xlink="http://www.w3.org/1999/xlink" width="450pt" height="338pt" viewBox="0 0 450 338" version="1.1">
<g id="surface1-8f405673">
<path style=" stroke:none;fill-rule:nonzero;fill:rgb(100%,100%,100%);fill-opacity:1;" d="M 0 0 L 450 0 L 450 337.5 L 0 337.5 Z M 0 0 "/>
<path style="fill:none;stroke-width:2;stroke-linecap:butt;stroke-linejoin:miter;stroke:rgb(30.19608%,30.19608%,30.19608%);stroke-opacity:1;stroke-miterlimit:2;" d="M 41.817708 225 L 67.635417 225 " transform="matrix(0.75,0,0,0.75,0,0)"/>
<path style="fill:none;stroke-width:2;stroke-linecap:butt;stroke-linejoin:miter;stroke:rgb(30.19608%,30.19608%,30.19608%);stroke-opacity:1;stroke-miterlimit:2;" d="M 67.635417 225 L 93.453125 225 " transform="matrix(0.75,0,0,0.75,0,0)"/>
<path style="fill:none;stroke-width:2;stroke-linecap:butt;stroke-linejoin:miter;stroke:rgb(30.19608%,30.19608%,30.19608%);stroke-opacity:1;stroke-miterlimit:2;" d="M 93.453125 225 L 119.270833 225 " transform="matrix(0.75,0,0,0.75,0,0)"/>
<path style="fill:none;stroke-width:2;stroke-linecap:butt;stroke-linejoin:miter;stroke:rgb(30.19608%,30.19608%,30.19608%);stroke-opacity:1;stroke-miterlimit:2;" d="M 119.270833 225 L 145.088542 225 " transform="matrix(0.75,0,0,0.75,0,0)"/>
<path style="fill:none;stroke-width:2;stroke-linecap:butt;stroke-linejoin:miter;stroke:rgb(30.19608%,30.19608%,30.19608%);stroke-opacity:1;stroke-miterlimit:2;" d="M 145.088542 225 L 170.911458 225 " transform="matrix(0.75,0,0,0.75,0,0)"/>
<path style="fill:none;stroke-width:2;stroke-linecap:butt;stroke-linejoin:miter;stroke:rgb(30.19608%,30.19608%,30.19608%);stroke-opacity:1;stroke-miterlimit:2;" d="M 170.911458 225 L 196.729167 225 " transform="matrix(0.75,0,0,0.75,0,0)"/>
<path style="fill:none;stroke-width:2;stroke-linecap:butt;stroke-linejoin:miter;stroke:rgb(30.19608%,30.19608%,30.19608%);stroke-opacity:1;stroke-miterlimit:2;" d="M 196.729167 225 L 222.546875 225 " transform="matrix(0.75,0,0,0.75,0,0)"/>
<path style="fill:none;stroke-width:2;stroke-linecap:butt;stroke-linejoin:miter;stroke:rgb(30.19608%,30.19608%,30.19608%);stroke-opacity:1;stroke-miterlimit:2;" d="M 222.546875 225 L 248.364583 225 " transform="matrix(0.75,0,0,0.75,0,0)"/>
<path style="fill:none;stroke-width:2;stroke-linecap:butt;stroke-linejoin:miter;stroke:rgb(30.19608%,30.19608%,30.19608%);stroke-opacity:1;stroke-miterlimit:2;" d="M 248.364583 225 L 274.182292 225 " transform="matrix(0.75,0,0,0.75,0,0)"/>
<path style="fill:none;stroke-width:2;stroke-linecap:butt;stroke-linejoin:miter;stroke:rgb(30.19608%,30.19608%,30.19608%);stroke-opacity:1;stroke-miterlimit:2;" d="M 274.182292 225 L 300 225 " transform="matrix(0.75,0,0,0.75,0,0)"/>
<path style="fill:none;stroke-width:2;stroke-linecap:butt;stroke-linejoin:miter;stroke:rgb(30.19608%,30.19608%,30.19608%);stroke-opacity:1;stroke-miterlimit:2;" d="M 300 225 L 325.817708 225 " transform="matrix(0.75,0,0,0.75,0,0)"/>
<path style="fill:none;stroke-width:2;stroke-linecap:butt;stroke-linejoin:miter;stroke:rgb(30.19608%,30.19608%,30.19608%);stroke-opacity:1;stroke-miterlimit:2;" d="M 325.817708 225 L 351.635417 225 " transform="matrix(0.75,0,0,0.75,0,0)"/>
<path style="fill:none;stroke-width:2;stroke-linecap:butt;stroke-linejoin:miter;stroke:rgb(30.19608%,30.19608%,30.19608%);stroke-opacity:1;stroke-miterlimit:2;" d="M 351.635417 225 L 377.453125 225 " transform="matrix(0.75,0,0,0.75,0,0)"/>
<path style="fill:none;stroke-width:2;stroke-linecap:butt;stroke-linejoin:miter;stroke:rgb(30.19608%,30.19608%,30.19608%);stroke-opacity:1;stroke-miterlimit:2;" d="M 377.453125 225 L 403.270833 225 " transform="matrix(0.75,0,0,0.75,0,0)"/>
<path style="fill:none;stroke-width:2;stroke-linecap:butt;stroke-linejoin:miter;stroke:rgb(30.19608%,30.19608%,30.19608%);stroke-opacity:1;stroke-miterlimit:2;" d="M 403.270833 225 L 429.088542 225 " transform="matrix(0.75,0,0,0.75,0,0)"/>
<path style="fill:none;stroke-width:2;stroke-linecap:butt;stroke-linejoin:miter;stroke:rgb(30.19608%,30.19608%,30.19608%);stroke-opacity:1;stroke-miterlimit:2;" d="M 429.088542 225 L 454.911458 225 " transform="matrix(0.75,0,0,0.75,0,0)"/>
<path style="fill:none;stroke-width:2;stroke-linecap:butt;stroke-linejoin:miter;stroke:rgb(30.19608%,30.19608%,30.19608%);stroke-opacity:1;stroke-miterlimit:2;" d="M 454.911458 225 L 480.729167 225 " transform="matrix(0.75,0,0,0.75,0,0)"/>
<path style="fill:none;stroke-width:2;stroke-linecap:butt;stroke-linejoin:miter;stroke:rgb(30.19608%,30.19608%,30.19608%);stroke-opacity:1;stroke-miterlimit:2;" d="M 480.729167 225 L 506.546875 225 " transform="matrix(0.75,0,0,0.75,0,0)"/>
<path style="fill:none;stroke-width:2;stroke-linecap:butt;stroke-linejoin:miter;stroke:rgb(30.19608%,30.19608%,30.19608%);stroke-opacity:1;stroke-miterlimit:2;" d="M 506.546875 225 L 532.364583 225 " transform="matrix(0.75,0,0,0.75,0,0)"/>
<path style="fill:none;stroke-width:2;stroke-linecap:butt;stroke-linejoin:miter;stroke:rgb(30.19608%,30.19608%,30.19608%);stroke-opacity:1;stroke-miterlimit:2;" d="M 532.364583 225 L 558.182292 225 " transform="matrix(0.75,0,0,0.75,0,0)"/>
<path style=" stroke:none;fill-rule:nonzero;fill:rgb(0%,50.196081%,0%);fill-opacity:1;" d="M 33.214844 168.75 C 33.214844 166.28125 29.511719 166.28125 29.511719 168.75 C 29.511719 171.21875 33.214844 171.21875 33.214844 168.75 Z M 33.214844 168.75 "/>
<path style=" stroke:none;fill-rule:nonzero;fill:rgb(0%,50.196081%,0%);fill-opacity:1;" d="M 52.578125 168.75 C 52.578125 166.28125 48.875 166.28125 48.875 168.75 C 48.875 171.21875 52.578125 171.21875 52.578125 168.75 Z M 52.578125 168.75 "/>
<path style=" stroke:none;fill-rule:nonzero;fill:rgb(0%,50.196081%,0%);fill-opacity:1;" d="M 71.941406 168.75 C 71.941406 166.28125 68.242188 166.28125 68.242188 168.75 C 68.242188 171.21875 71.941406 171.21875 71.941406 168.75 Z M 71.941406 168.75 "/>
<path style=" stroke:none;fill-rule:nonzero;fill:rgb(0%,50.196081%,0%);fill-opacity:1;" d="M 91.304688 168.75 C 91.304688 166.28125 87.605469 166.28125 87.605469 168.75 C 87.605469 171.21875 91.304688 171.21875 91.304688 168.75 Z M 91.304688 168.75 "/>
<path style=" stroke:none;fill-rule:nonzero;fill:rgb(0%,50.196081%,0%);fill-opacity:1;" d="M 110.667969 168.75 C 110.667969 166.28125 106.96875 166.28125 106.96875 168.75 C 106.96875 171.21875 110.667969 171.21875 110.667969 168.75 Z M 110.667969 168.75 "/>
<path style=" stroke:none;fill-rule:nonzero;fill:rgb(0%,50.196081%,0%);fill-opacity:1;" d="M 130.03125 168.75 C 130.03125 166.28125 126.332031 166.28125 126.332031 168.75 C 126.332031 171.21875 130.03125 171.21875 130.03125 168.75 Z M 130.03125 168.75 "/>
<path style=" stroke:none;fill-rule:nonzero;fill:rgb(0%,50.196081%,0%);fill-opacity:1;" d="M 149.394531 168.75 C 149.394531 166.28125 145.695312 166.28125 145.695312 168.75 C 145.695312 171.21875 149.394531 171.21875 149.394531 168.75 Z M 149.394531 168.75 "/>
<path style=" stroke:none;fill-rule:nonzero;fill:rgb(0%,50.196081%,0%);fill-opacity:1;" d="M 168.757812 168.75 C 168.757812 166.28125 165.058594 166.28125 165.058594 168.75 C 165.058594 171.21875 168.757812 171.21875 168.757812 168.75 Z M 168.757812 168.75 "/>
<path style=" stroke:none;fill-rule:nonzero;fill:rgb(0%,50.196081%,0%);fill-opacity:1;" d="M 188.125 168.75 C 188.125 166.28125 184.421875 166.28125 184.421875 168.75 C 184.421875 171.21875 188.125 171.21875 188.125 168.75 Z M 188.125 168.75 "/>
<path style=" stroke:none;fill-rule:nonzero;fill:rgb(0%,50.196081%,0%);fill-opacity:1;" d="M 207.488281 168.75 C 207.488281 166.28125 203.785156 166.28125 203.785156 168.75 C 203.785156 171.21875 207.488281 171.21875 207.488281 168.75 Z M 207.488281 168.75 "/>
<path style=" stroke:none;fill-rule:nonzero;fill:rgb(0%,50.196081%,0%);fill-opacity:1;" d="M 226.851562 168.75 C 226.851562 166.28125 223.148438 166.28125 223.148438 168.75 C 223.148438 171.21875 226.851562 171.21875 226.851562 168.75 Z M 226.851562 168.75 "/>
<path style=" stroke:none;fill-rule:nonzero;fill:rgb(0%,50.196081%,0%);fill-opacity:1;" d="M 246.214844 168.75 C 246.214844 166.28125 242.511719 166.28125 242.511719 168.75 C 242.511719 171.21875 246.214844 171.21875 246.214844 168.75 Z M 246.214844 168.75 "/>
<path style=" stroke:none;fill-rule:nonzero;fill:rgb(0%,50.196081%,0%);fill-opacity:1;" d="M 265.578125 168.75 C 265.578125 166.28125 261.875 166.28125 261.875 168.75 C 261.875 171.21875 265.578125 171.21875 265.578125 168.75 Z M 265.578125 168.75 "/>
<path style=" stroke:none;fill-rule:nonzero;fill:rgb(0%,50.196081%,0%);fill-opacity:1;" d="M 284.941406 168.75 C 284.941406 166.28125 281.242188 166.28125 281.242188 168.75 C 281.242188 171.21875 284.941406 171.21875 284.941406 168.75 Z M 284.941406 168.75 "/>
<path style=" stroke:none;fill-rule:nonzero;fill:rgb(0%,50.196081%,0%);fill-opacity:1;" d="M 304.304688 168.75 C 304.304688 166.28125 300.605469 166.28125 300.605469 168.75 C 300.605469 171.21875 304.304688 171.21875 304.304688 168.75 Z M 304.304688 168.75 "/>
<path style=" stroke:none;fill-rule:nonzero;fill:rgb(0%,50.196081%,0%);fill-opacity:1;" d="M 323.667969 168.75 C 323.667969 166.28125 319.96875 166.28125 319.96875 168.75 C 319.96875 171.21875 323.667969 171.21875 323.667969 168.75 Z M 323.667969 168.75 "/>
<path style=" stroke:none;fill-rule:nonzero;fill:rgb(0%,50.196081%,0%);fill-opacity:1;" d="M 343.03125 168.75 C 343.03125 166.28125 339.332031 166.28125 339.332031 168.75 C 339.332031 171.21875 343.03125 171.21875 343.03125 168.75 Z M 343.03125 168.75 "/>
<path style=" stroke:none;fill-rule:nonzero;fill:rgb(0%,50.196081%,0%);fill-opacity:1;" d="M 362.394531 168.75 C 362.394531 166.28125 358.695312 166.28125 358.695312 168.75 C 358.695312 171.21875 362.394531 171.21875 362.394531 168.75 Z M 362.394531 168.75 "/>
<path style=" stroke:none;fill-rule:nonzero;fill:rgb(0%,50.196081%,0%);fill-opacity:1;" d="M 381.757812 168.75 C 381.757812 166.28125 378.058594 166.28125 378.058594 168.75 C 378.058594 171.21875 381.757812 171.21875 381.757812 168.75 Z M 381.757812 168.75 "/>
<path style=" stroke:none;fill-rule:nonzero;fill:rgb(0%,50.196081%,0%);fill-opacity:1;" d="M 401.125 168.75 C 401.125 166.28125 397.421875 166.28125 397.421875 168.75 C 397.421875 171.21875 401.125 171.21875 401.125 168.75 Z M 401.125 168.75 "/>
<path style=" stroke:none;fill-rule:nonzero;fill:rgb(0%,50.196081%,0%);fill-opacity:1;" d="M 420.488281 168.75 C 420.488281 166.28125 416.785156 166.28125 416.785156 168.75 C 416.785156 171.21875 420.488281 171.21875 420.488281 168.75 Z M 420.488281 168.75 "/>
</g>
</svg>
