$MeshFormat
4.1 0 8
$EndMeshFormat
$PhysicalNames
4
1 1 "c1"
2 2 "s1"
2 3 "s2"
2 4 "s3"
$EndPhysicalNames
$Entities
15 18 4 0
5 0.5 0.3 0 0 
6 0.75 0.3 0 0 
7 0.75 0.8999999999999999 0 0 
8 0.5 0.8999999999999999 0 0 
9 0 0 0 0 
10 0.5 0 0 0 
11 0.5 1 0 0 
12 0 1 0 0 
13 0.75 0 0 0 
14 1.25 0 0 0 
15 1.25 0.5 0 0 
16 1.25 1 0 0 
17 0.75 1 0 0 
18 1.75 0.5 0 0 
19 1.75 1 0 0 
5 0.4999999 0.2999999 -1e-07 0.7500000999999999 0.3000001 1e-07 0 2 5 -6 
6 0.7499998999999999 0.2999998999999999 -1.000000000555111e-07 0.7500001000000001 0.9000001 1.000000000555111e-07 0 2 6 -7 
7 0.4999999 0.8999999 -1e-07 0.7500000999999999 0.9000000999999999 1e-07 0 2 7 -8 
8 0.4999999 0.2999999 -1e-07 0.5000000999999999 0.9000000999999999 1e-07 0 2 8 -5 
9 -9.999999997511999e-08 -1e-07 -1e-07 0.5000000999999999 1e-07 1e-07 1 1 2 9 -10 
10 0.4999999 -1.000000000028756e-07 -1e-07 0.5000000999999999 0.3000001 1e-07 0 2 10 -5 
11 0.4999999 0.8999999 -1e-07 0.5000000999999999 1.0000001 1e-07 0 2 8 -11 
12 -9.999999997511999e-08 0.9999999000000001 -1e-07 0.5000000999999999 1.0000001 1e-07 1 1 2 11 -12 
13 -1e-07 -9.999999994736442e-08 -1e-07 1e-07 1.0000001 1e-07 1 1 2 12 -9 
14 0.7499999000000001 -1e-07 -1e-07 1.2500001 1e-07 1e-07 0 2 13 -14 
15 1.2499999 -9.999999997511999e-08 -1e-07 1.2500001 0.5000000999999999 1e-07 0 2 14 -15 
16 1.2499999 0.4999999 -1e-07 1.2500001 1.0000001 1e-07 0 2 15 -16 
17 0.7499999000000001 0.9999999000000001 -1e-07 1.2500001 1.0000001 1e-07 0 2 16 -17 
18 0.7499999000000001 0.8999999 -1e-07 0.7500000999999999 1.0000001 1e-07 0 2 17 -7 
19 0.7499999000000001 -1.000000000028756e-07 -1e-07 0.7500000999999999 0.3000001 1e-07 0 2 6 -13 
20 1.2499999 0.4999999 -1e-07 1.7500001 0.5000000999999999 1e-07 0 2 15 -18 
21 1.7499999 0.4999999 -1e-07 1.7500001 1.0000001 1e-07 0 2 18 -19 
22 1.2499999 0.9999999000000001 -1e-07 1.7500001 1.0000001 1e-07 0 2 19 -16 
1 -9.999999997511999e-08 -9.999999994736442e-08 -1e-07 0.5000000999999999 1.0000001 1e-07 1 2 6 9 10 -8 11 12 13 
2 0.4999998999999999 0.2999998999999999 -1.000000000555111e-07 0.7500001000000001 0.9000001 1.000000000555111e-07 1 3 4 5 6 7 8 
3 0.7499998999999999 -1.000000000583867e-07 -1.000000000555111e-07 1.2500001 1.0000001 1.000000000555111e-07 1 3 7 14 15 16 17 18 -6 19 
4 1.2499999 0.4999999 -1e-07 1.7500001 1.0000001 1e-07 1 4 4 20 21 22 -16 
$EndEntities
$Nodes
37 745 1 745
0 5 0 1
1
0.5 0.3 0
0 6 0 1
2
0.75 0.3 0
0 7 0 1
3
0.75 0.8999999999999999 0
0 8 0 1
4
0.5 0.8999999999999999 0
0 9 0 1
5
0 0 0
0 10 0 1
6
0.5 0 0
0 11 0 1
7
0.5 1 0
0 12 0 1
8
0 1 0
0 13 0 1
9
0.75 0 0
0 14 0 1
10
1.25 0 0
0 15 0 1
11
1.25 0.5 0
0 16 0 1
12
1.25 1 0
0 17 0 1
13
0.75 1 0
0 18 0 1
14
1.75 0.5 0
0 19 0 1
15
1.75 1 0
1 5 0 4
16
17
18
19
0.55 0.3 0
0.6 0.3 0
0.65 0.3 0
0.7 0.3 0
1 6 0 11
20
21
22
23
24
25
26
27
28
29
30
0.75 0.35 0
0.75 0.4 0
0.75 0.4500000000000001 0
0.75 0.5000000000000001 0
0.75 0.5500000000000002 0
0.75 0.6000000000000003 0
0.75 0.6500000000000004 0
0.75 0.7000000000000004 0
0.75 0.7500000000000004 0
0.75 0.8000000000000005 0
0.75 0.8500000000000001 0
1 7 0 4
31
32
33
34
0.7 0.8999999999999999 0
0.65 0.8999999999999999 0
0.6 0.8999999999999999 0
0.55 0.8999999999999999 0
1 8 0 11
35
36
37
38
39
40
41
42
43
44
45
0.5 0.8499999999999999 0
0.5 0.7999999999999999 0
0.5 0.7499999999999999 0
0.5 0.6999999999999997 0
0.5 0.6499999999999997 0
0.5 0.5999999999999996 0
0.5 0.5499999999999996 0
0.5 0.4999999999999994 0
0.5 0.4499999999999994 0
0.5 0.3999999999999994 0
0.5 0.3499999999999998 0
1 9 0 9
46
47
48
49
50
51
52
53
54
0.05 0 0
0.1 0 0
0.15 0 0
0.2 0 0
0.25 0 0
0.3 0 0
0.35 0 0
0.4 0 0
0.45 0 0
1 10 0 5
55
56
57
58
59
0.5 0.05000000000000002 0
0.5 0.1000000000000001 0
0.5 0.1500000000000002 0
0.5 0.2000000000000003 0
0.5 0.2500000000000003 0
1 11 0 1
60
0.5 0.95 0
1 12 0 9
61
62
63
64
65
66
67
68
69
0.45 1 0
0.4 1 0
0.35 1 0
0.3 1 0
0.25 1 0
0.2 1 0
0.15 1 0
0.09999999999999998 1 0
0.04999999999999999 1 0
1 13 0 19
70
71
72
73
74
75
76
77
78
79
80
81
82
83
84
85
86
87
88
0 0.95 0
0 0.9 0
0 0.85 0
0 0.8 0
0 0.75 0
0 0.7 0
0 0.65 0
0 0.6 0
0 0.55 0
0 0.5 0
0 0.45 0
0 0.4 0
0 0.35 0
0 0.3 0
0 0.25 0
0 0.2 0
0 0.15 0
0 0.09999999999999998 0
0 0.05000000000000004 0
1 14 0 9
89
90
91
92
93
94
95
96
97
0.8 0 0
0.85 0 0
0.9 0 0
0.95 0 0
1 0 0
1.05 0 0
1.1 0 0
1.15 0 0
1.2 0 0
1 15 0 9
98
99
100
101
102
103
104
105
106
1.25 0.05 0
1.25 0.1 0
1.25 0.15 0
1.25 0.2 0
1.25 0.25 0
1.25 0.3 0
1.25 0.35 0
1.25 0.4 0
1.25 0.45 0
1 16 0 9
107
108
109
110
111
112
113
114
115
1.25 0.55 0
1.25 0.6 0
1.25 0.65 0
1.25 0.7 0
1.25 0.75 0
1.25 0.8 0
1.25 0.85 0
1.25 0.9 0
1.25 0.95 0
1 17 0 9
116
117
118
119
120
121
122
123
124
1.2 1 0
1.15 1 0
1.1 1 0
1.05 1 0
1 1 0
0.95 1 0
0.9 1 0
0.85 1 0
0.8 1 0
1 18 0 1
125
0.75 0.95 0
1 19 0 5
126
127
128
129
130
0.75 0.2499999999999999 0
0.75 0.1999999999999997 0
0.75 0.1499999999999997 0
0.75 0.09999999999999953 0
0.75 0.04999999999999971 0
1 20 0 9
131
132
133
134
135
136
137
138
139
1.3 0.5 0
1.35 0.5 0
1.4 0.5 0
1.45 0.5 0
1.5 0.5 0
1.55 0.5 0
1.6 0.5 0
1.65 0.5 0
1.7 0.5 0
1 21 0 9
140
141
142
143
144
145
146
147
148
1.75 0.55 0
1.75 0.6 0
1.75 0.65 0
1.75 0.7 0
1.75 0.75 0
1.75 0.8 0
1.75 0.85 0
1.75 0.9 0
1.75 0.95 0
1 22 0 9
149
150
151
152
153
154
155
156
157
1.7 1 0
1.65 1 0
1.6 1 0
1.55 1 0
1.5 1 0
1.45 1 0
1.4 1 0
1.35 1 0
1.3 1 0
2 1 0 213
158
159
160
161
162
163
164
165
166
167
168
169
170
171
172
173
174
175
176
177
178
179
180
181
182
183
184
185
186
187
188
189
190
191
192
193
194
195
196
197
198
199
200
201
202
203
204
205
206
207
208
209
210
211
212
213
214
215
216
217
218
219
220
221
222
223
224
225
226
227
228
229
230
231
232
233
234
235
236
237
238
239
240
241
242
243
244
245
246
247
248
249
250
251
252
253
254
255
256
257
258
259
260
261
262
263
264
265
266
267
268
269
270
271
272
273
274
275
276
277
278
279
280
281
282
283
284
285
286
287
288
289
290
291
292
293
294
295
296
297
298
299
300
301
302
303
304
305
306
307
308
309
310
311
312
313
314
315
316
317
318
319
320
321
322
323
324
325
326
327
328
329
330
331
332
333
334
335
336
337
338
339
340
341
342
343
344
345
346
347
348
349
350
351
352
353
354
355
356
357
358
359
360
361
362
363
364
365
366
367
368
369
370
0.4566987298107781 0.3749999999999998 0
0.04330127018922186 0.675 0
0.04330127018922195 0.525 0
0.04330127018922178 0.2750000000000002 0
0.456698729810778 0.6249999999999997 0
0.4574116524528789 0.226234818237985 0
0.2685726599909046 0.9531967624671098 0
0.2265798546858283 0.04238914066107846 0
0.4577320490974748 0.7753214333189256 0
0.04330127018922186 0.825 0
0.4566987298107781 0.4749999999999995 0
0.04330127018922192 0.4249999999999999 0
0.04330127018922159 0.1750000000000005 0
0.1745399000491715 0.9555728489640949 0
0.3249999999999999 0.04226497308103749 0
0.4599679368558884 0.8734037287368245 0
0.1206637172646702 0.04481480624777168 0
0.4602038715518294 0.1270105983838116 0
0.3739792335814524 0.9556374511175443 0
0.04218481522075898 0.9230662432702592 0
0.04233860225279149 0.07521186846404393 0
0.4247033841503386 0.04147487020744084 0
0.04311519436114475 0.8746777072117098 0
0.08657152774043092 0.8499462845352849 0
0.08659737160544156 0.7999910474225473 0
0.1298977803324965 0.8249895553263052 0
0.1299019440663036 0.7749967671248086 0
0.1732037646341323 0.7999977204085187 0
0.1732045503195344 0.7499990812555544 0
0.2165060431860913 0.7749994669440119 0
0.2165062112465473 0.7249997580332608 0
0.2598075465587344 0.749999870829545 0
0.2598075854226378 0.6999999381438006 0
0.2165063217107331 0.6749999493628434 0
0.2598076103106526 0.6499999812511069 0
0.216506344269433 0.6249999884356582 0
0.2598076182184382 0.5999999949477939 0
0.2165063493471806 0.5749999972305752 0
0.2598076203826936 0.5499999986963945 0
0.216506350554181 0.5249999993211615 0
0.2598076209445694 0.4999999996695924 0
0.2165063508489935 0.4749999998317922 0
0.2598076210873506 0.4499999999168973 0
0.2165063509219255 0.424999999958115 0
0.2598076211233026 0.3999999999791686 0
0.2165063509400728 0.3749999999895475 0
0.259807621132319 0.349999999994786 0
0.2165063509445998 0.3249999999973892 0
0.2598076211345761 0.299999999998696 0
0.2165063509457303 0.2749999999993479 0
0.2598076211351405 0.2499999999996742 0
0.2165063509460127 0.2249999999998375 0
0.2598076211352815 0.1999999999999189 0
0.303108891324551 0.3249999999999998 0
0.3031088913245515 0.4249999999999996 0
0.303108891324552 0.5249999999999995 0
0.3031088729430046 0.7249999681622237 0
0.303108875831529 0.7749999731652942 0
0.1732050793776197 0.5999999976110388 0
0.173205080755629 0.3499999999978232 0
0.3031088913245112 0.2249999999999323 0
0.3007613628696348 0.6262348142711345 0
0.2167494769301918 0.825225155142403 0
0.2165063509460831 0.17499999999996 0
0.3031088913245359 0.1749999999999754 0
0.1732050807366702 0.4499999999649845 0
0.1732050807568653 0.1999999999999669 0
0.1732050807568827 0.1499999999999977 0
0.3447630276757713 0.1999999999999846 0
0.3467339456218075 0.1477670900630674 0
0.3464101600441367 0.7499999974545111 0
0.3464101586866647 0.7999999951033003 0
0.3456972355631429 0.70123481250744 0
0.3402850871284393 0.2512348182379708 0
0.3031263111491485 0.8249698174016068 0
0.3464130643466894 0.8499949687508173 0
0.1299034110778796 0.7249993080633937 0
0.1298976367554687 0.8749893066435982 0
0.3031088913245501 0.1250000000000004 0
0.385383874523077 0.1756161904155906 0
0.3879454766282928 0.7252058016603244 0
0.3897114317029971 0.8249999999999991 0
0.3030813643652761 0.87435186738677 0
0.1299038105676599 0.174999999999995 0
0.1299038105676602 0.2249999999999944 0
0.3827598707752198 0.6752401023612935 0
0.1307411517940096 0.126450317547305 0
0.2157759762772839 0.1246846931655213 0
0.3897114317029936 0.1250000000000001 0
0.3891400865935478 0.8740542383430402 0
0.4222437955114507 0.6988394990989509 0
0.4568175502511284 0.2752058030396643 0
0.4165840019599509 0.2527097400222443 0
0.4146612760601144 0.3017207420816362 0
0.4597492667059591 0.1767757210082843 0
0.4566987298107781 0.5249999999999995 0
0.4133974596215563 0.4999999999999994 0
0.4133974596215562 0.4499999999999996 0
0.4133974596215562 0.5499999999999994 0
0.3700961894323345 0.4749999999999996 0
0.3700961894323344 0.4249999999999998 0
0.4133974596215561 0.3999999999999999 0
0.3700961894323342 0.3750000000000001 0
0.4136080956946492 0.3502867903469394 0
0.3716323925872355 0.3255719413178139 0
0.4566987298107781 0.4249999999999996 0
0.3887805529226824 0.7750089283205833 0
0.1731881991448153 0.1015446582325772 0
0.04330127018922186 0.625 0
0.08660254037844367 0.6499999999999999 0
0.08660254037844378 0.6000000000000001 0
0.08637925417065223 0.8996132569434753 0
0.1292707353517707 0.9244469605828796 0
0.1736929459227159 0.9014205301248424 0
0.2193221762139893 0.9263114443941256 0
0.2178621934656706 0.8765348073608399 0
0.2609214707914645 0.9021690984852266 0
0.08134819216023231 0.9538614673377541 0
0.3031088913245512 0.3749999999999997 0
0.4569642753027783 0.3253688892447066 0
0.1732048976132078 0.6999996827858419 0
0.3031088913245518 0.4749999999999995 0
0.3749505640250564 0.0418859708608349 0
0.3485006903820582 0.09189660474748074 0
0.1735506330067793 0.8505261791677512 0
0.3484622734476112 0.9069867539798477 0
0.04330127018922197 0.475 0
0.08660254037844387 0.5000000000000001 0
0.0866025403784437 0.4499999999999999 0
0.0866025403784435 0.4 0
0.4527193881727529 0.9220499339534025 0
0.4566987298107781 0.5749999999999995 0
0.4141103822636569 0.5987651817620145 0
0.3700961894323342 0.5749999999999992 0
0.3751913641217365 0.6248815814432502 0
0.04330127018922195 0.5750000000000001 0
0.08660254037844375 0.55 0
0.1299038105676653 0.5249999999999999 0
0.04330127018922192 0.325 0
0.08660254037844339 0.3000000000000005 0
0.2598386317855647 0.800001124117679 0
0.08660254037844345 0.3500000000000003 0
0.04330127018922156 0.2250000000000006 0
0.1735483938765756 0.05051146766212072 0
0.2752633091143047 0.04194023530831614 0
0.2540831408828843 0.09061384725851834 0
0.04314082553314974 0.1250353114106744 0
0.3018858821283738 0.6766464039606023 0
0.4577363950458568 0.8249446915371957 0
0.3024143943521839 0.2750535722197467 0
0.2587318119817698 0.1483830900706491 0
0.325 0.9566987298107781 0
0.1732050440177207 0.649999936365897 0
0.04330127018922178 0.3750000000000001 0
0.3017749035697473 0.5750750004807649 0
0.1732050807524906 0.3999999999923871 0
0.04330040872705482 0.7749985079037579 0
0.04330112661219396 0.724999751317293 0
0.1732050807568031 0.2499999999998581 0
0.1732050807566115 0.2999999999995258 0
0.3700961894323344 0.5249999999999995 0
0.08660244986730803 0.6999998432301144 0
0.0866011186593636 0.7499975375103192 0
0.1299036922537042 0.6749997950742078 0
0.1299037844955996 0.6249999548418573 0
0.1299038059924432 0.5749999920754827 0
0.1732050794326628 0.5499999977063763 0
0.1732050804513063 0.499999999470719 0
0.1299038105133657 0.4749999999059505 0
0.1299038105545131 0.4249999999772204 0
0.1299038105645308 0.374999999994572 0
0.09083808577609173 0.09244283870960068 0
0.1299038105668872 0.3249999999986538 0
0.1299038105674747 0.2749999999996723 0
0.08660254037841075 0.2499999999999449 0
0.08660254037843615 0.1999999999999895 0
0.08742128070642813 0.1489880779445942 0
0.2599121584030373 0.8498189361410484 0
0.07456279980395195 0.04161876698005207 0
0.4530728280115157 0.07795330506954551 0
0.4233355377724222 0.9600160806000941 0
0.4 0.08097344149808738 0
0.3999171452587716 0.9190116389080625 0
0.3008508616719709 0.07892645369343237 0
0.3013496869386199 0.9188171398876538 0
0.4203604175122991 0.2010560782806841 0
0.3765864574827673 0.2760395402766108 0
0.4606803348560957 0.7236253371649942 0
0.3409543520742094 0.6526213210917499 0
0.4180352016999419 0.644703026420308 0
0.4602790265390606 0.6707051483315896 0
0.4231676328834488 0.1509153470060379 0
0.3366025403784429 0.3500000000000003 0
0.3366025403784428 0.3999999999999998 0
0.336602540378443 0.4499999999999996 0
0.3366025403784432 0.4999999999999994 0
0.3366025403784432 0.5499999999999993 0
0.3375634520743509 0.6006354528811496 0
0.1264512610801679 0.9666991398252782 0
0.4233825680650273 0.800045842196117 0
0.4234427517043411 0.849263294049691 0
0.3804228065598104 0.2257924246706054 0
0.336527358485821 0.2999999999999998 0
0.4234607961801706 0.7496744736266492 0
0.1377959095712324 0.08315281767987504 0
0.225 0.9673718682342005 0
0.2088762601567609 0.0817147619141404 0
0.03660254037844404 0.03660254037844407 0
0.4633974596215562 0.9633974596215562 0
0.0366025403784439 0.9633974596215561 0
0.4633974596215562 0.03660254037844368 0
0.4250374617170604 0.8875565667982042 0
0.4252311528299575 0.1123705383914965 0
2 2 0 59
371
372
373
374
375
376
377
378
379
380
381
382
383
384
385
386
387
388
389
390
391
392
393
394
395
396
397
398
399
400
401
402
403
404
405
406
407
408
409
410
411
412
413
414
415
416
417
418
419
420
421
422
423
424
425
426
427
428
429
0.6225830236262854 0.3406887890449802 0
0.5433012701892219 0.7749999999999999 0
0.5433012701892219 0.5749999999999996 0
0.7066987298107781 0.6750000000000005 0
0.7066987298107777 0.4750000000000002 0
0.708382802939962 0.7720830997765925 0
0.7066987298107779 0.5750000000000003 0
0.5433012701892219 0.6749999999999997 0
0.5433012701892219 0.4749999999999994 0
0.625 0.856698729810778 0
0.5479755136558243 0.3784712730668954 0
0.7076613977472084 0.3752118684640439 0
0.7069794086656421 0.7245138499627659 0
0.6634442394307001 0.6999189749937949 0
0.6634052562564133 0.6499864958322996 0
0.6200961894323341 0.6750000000000007 0
0.6200961894323339 0.6250000000000007 0
0.6241803003289301 0.7289833629415864 0
0.6633987590606988 0.5999977493053836 0
0.6200961894323338 0.5750000000000006 0
0.6633976761947462 0.5499996248842309 0
0.6200961894323336 0.5250000000000006 0
0.6633974957170874 0.4999999374807055 0
0.6200961894323335 0.4750000000000005 0
0.6633974656374775 0.4499999895801179 0
0.620361702405134 0.4211961632289556 0
0.6676894304852147 0.3984760212055017 0
0.5432910756445724 0.7274949271255211 0
0.5433012701892219 0.5249999999999995 0
0.6747881315359561 0.8576613977472083 0
0.6508314599572323 0.8198779709569484 0
0.5951493444732897 0.8119711851929337 0
0.5749172465297198 0.857574767862088 0
0.7067002458231113 0.6249973741896141 0
0.5419032407053177 0.4277471693077884 0
0.7075745039467797 0.4247813132082773 0
0.6633974596215563 0.7500000000000007 0
0.543301270189222 0.6249999999999997 0
0.7066987719222315 0.5249999270608229 0
0.5761983378039571 0.3397602614644557 0
0.6709715005821125 0.3469345232913271 0
0.704306764350787 0.8215413364541795 0
0.5416617335951126 0.8263239021127629 0
0.5883796750368446 0.7596671595765854 0
0.5968386167769678 0.378448445588574 0
0.581698729810778 0.6500000000000001 0
0.5834912067404469 0.7026909082739489 0
0.5816987298107776 0.5999999999999998 0
0.5816987298107774 0.5499999999999995 0
0.5809675105198112 0.4519925125527635 0
0.5816987298107773 0.4999999999999994 0
0.7133974596215561 0.8633974596215561 0
0.7133974596215561 0.3366025403784438 0
0.5366025403784438 0.8633974596215561 0
0.5366025403784436 0.3366025403784435 0
0.6323374216064774 0.7759083637685733 0
0.5782266737655162 0.4126367349625628 0
0.6720250895426981 0.7857136365568467 0
0.6354691925945233 0.3775624439463197 0
2 3 0 214
430
431
432
433
434
435
436
437
438
439
440
441
442
443
444
445
446
447
448
449
450
451
452
453
454
455
456
457
458
459
460
461
462
463
464
465
466
467
468
469
470
471
472
473
474
475
476
477
478
479
480
481
482
483
484
485
486
487
488
489
490
491
492
493
494
495
496
497
498
499
500
501
502
503
504
505
506
507
508
509
510
511
512
513
514
515
516
517
518
519
520
521
522
523
524
525
526
527
528
529
530
531
532
533
534
535
536
537
538
539
540
541
542
543
544
545
546
547
548
549
550
551
552
553
554
555
556
557
558
559
560
561
562
563
564
565
566
567
568
569
570
571
572
573
574
575
576
577
578
579
580
581
582
583
584
585
586
587
588
589
590
591
592
593
594
595
596
597
598
599
600
601
602
603
604
605
606
607
608
609
610
611
612
613
614
615
616
617
618
619
620
621
622
623
624
625
626
627
628
629
630
631
632
633
634
635
636
637
638
639
640
641
642
643
1.206698729810778 0.5750000000000001 0
0.7893151246170467 0.3249847656022408 0
1.207501803985667 0.7236090347268455 0
1.206698729810778 0.425 0
1.206698729810778 0.275 0
0.7977505063187345 0.5220647963902368 0
0.7975408891832434 0.6827059880349039 0
0.975 0.04330127018922192 0
0.975 0.9566987298107781 0
0.7898301508343232 0.8279237746757162 0
0.7933012701892219 0.1749999999999997 0
1.210169849165678 0.8279237746757154 0
1.077199725976453 0.9553550002043919 0
1.075 0.04330127018922181 0
1.199795113018306 0.1739445809710869 0
0.795955052481309 0.4279225400347395 0
0.875675357605853 0.9524610595710692 0
0.8778337285646833 0.04092665301206422 0
1.21229360853471 0.9244186329346636 0
1.174788131535956 0.04233860225279151 0
0.7923386022527914 0.07521186846404343 0
0.7924059008893048 0.9250779039484456 0
1.124964688589326 0.04314082553315013 0
1.099994114764888 0.08657579960243178 0
1.049999019127482 0.08659808358244192 0
1.074998855648728 0.12989861097233 0
1.025 0.1299038105676658 0
1.049999809274788 0.1732042141576651 0
0.9999999682124651 0.1732049363236841 0
1.024861125427914 0.2164260245804268 0
0.975305341960424 0.2163032836125635 0
0.9998889070780951 0.2596802309918483 0
0.9522806274367025 0.258188730938991 0
0.9753615890858002 0.3028178446012497 0
1.023332743053252 0.3013615918563431 0
0.9979130666618878 0.3449911835724814 0
0.9505345679366913 0.3463109120697409 0
0.9749848093285344 0.3893177877133046 0
1.029521323407351 0.3836129716821773 0
0.9993139357130714 0.4311009823317158 0
0.9500646229944082 0.4328682018850265 0
0.9748964264512475 0.4759712688201587 0
1.030178487712826 0.4755592302877569 0
0.9995244409934624 0.5201952327250664 0
0.9499034779074527 0.5196547901361835 0
0.9749046531501536 0.5630197688465393 0
1.023583470990053 0.5637932848969589 0
0.9997480206900357 0.6063811207863952 0
1.047926996036904 0.6053548373033161 0
1.024612502787825 0.6494024516369119 0
0.9748934205796446 0.649526842327641 0
0.9999411813532716 0.6928073692523004 0
0.9499724336554874 0.692819462313228 0
0.9750000000000022 0.7361215932167731 0
1.024990196892214 0.7361194342542311 0
0.9999983661487043 0.7794225035789046 0
0.9499997276914527 0.7794228034348134 0
1.049998093840155 0.7794224436077226 0
0.9250000000000016 0.5629165124598855 0
0.9532095350800336 0.1718566316712832 0
1.076622392718399 0.6495345366410308 0
1.025000000000003 0.8227241335952167 0
1.074515973624291 0.5561915360360463 0
1.072784950622903 0.2153380051000606 0
1.074999682306695 0.8227240636288378 0
1.09999962935781 0.7794227817785526 0
0.8999839129845767 0.5196218335815836 0
0.8762652239237156 0.5621855856649832 0
0.9002108706539541 0.6060959615166238 0
1.048033006360904 0.8648897783863999 0
1.100000000000003 0.8660254037844384 0
0.9996721677268195 0.8656009586821463 0
1.123548510854964 0.1307358283987883 0
0.8430018696242056 0.6037607086284983 0
0.8747566270222966 0.6491693948397591 0
1.017369467850768 0.909299033303852 0
0.8511011789641234 0.5191707533632064 0
0.8750000000000013 0.4763139720814418 0
0.825525263541396 0.4755807939603074 0
0.8503585219880843 0.431898232756721 0
0.8312172786041434 0.3868744057417106 0
0.8780235730367548 0.3901327848991551 0
0.8586537460506656 0.348333242257251 0
1.07315416774996 0.7371856791753054 0
1.123400062463162 0.7302704331268468 0
1.148223288347847 0.7777690341526635 0
1.125 0.9566987298107782 0
0.9249953602244916 0.7361214397691891 0
0.8999991813193257 0.779422827836201 0
0.9249998181684648 0.822724117671721 0
0.8749990902573044 0.736121561713877 0
0.8764955992838935 0.8218605440895151 0
0.9002492362420614 0.8656462953436199 0
0.8559895335369865 0.8613748289145816 0
0.9499868703562256 0.8656563013373849 0
0.925033894515834 0.9111531711470711 0
1.1232080006328 0.8215848891972037 0
1.150000000000003 0.8660254037844382 0
0.7931408255331501 0.1250353114106736 0
0.8365757996024319 0.1500058852351119 0
0.836598083582442 0.2000009808725183 0
0.8791125281434372 0.1800878370059731 0
0.8798850535928958 0.1254397739740409 0
0.8788661456685812 0.2276214174117757 0
0.8364206929558102 0.2504229320260816 0
0.8784350535343919 0.2745577414155863 0
0.999999836521247 0.08660179757911024 0
0.8323237753948949 0.09919237638149542 0
1.200019464279218 0.7769283857100844 0
0.7941171577552387 0.5761130792140818 0
0.7925984442166345 0.2750538152500864 0
0.7887423035340044 0.8763809226443793 0
1.024999809274788 0.04330040358999931 0
0.9500000000000002 0.08660254037844395 0
0.9749428250152783 0.8225918030500311 0
0.9254722880941139 0.04227128204296526 0
1.206698729810778 0.625 0
1.163699431937769 0.6000000000000001 0
1.163749760657138 0.55 0
1.163447788340925 0.6499999999999999 0
1.122500718383394 0.6249224227735051 0
1.123050917989502 0.675655815284731 0
1.206840963626488 0.6747681724544742 0
1.206757446650042 0.525 0
1.163465962600697 0.5000000000000001 0
1.120088471481197 0.5260319226726745 0
1.120106320270335 0.4751719871121126 0
1.07704886385789 0.5006077641293062 0
1.077600377009839 0.4507289116781478 0
1.120232120866455 0.4251501497983768 0
1.077603735250272 0.4020877536164022 0
1.120253647339214 0.3753729839024633 0
1.077175647084093 0.354334724876428 0
1.120185887056977 0.3257846181298153 0
1.163438652210143 0.3501929336720465 0
1.074637660956567 0.3009287688856518 0
1.122383376868524 0.2744299040245318 0
1.163800472563126 0.300067909304399 0
1.163397459621556 0.25 0
1.163433220496767 0.4500536894850816 0
1.206725893259714 0.4750089482475136 0
0.7931530818240182 0.2250796213581143 0
0.9249747400562813 0.4764820747358415 0
0.9500000000000017 0.6062177826491073 0
0.9219790390768073 0.2995030812787817 0
0.8506282895442183 0.7776781958184438 0
0.8251045785686424 0.7315543447657962 0
0.7976707924858015 0.7756712804734647 0
1.206772764065804 0.3250434738294076 0
1.206717934284714 0.3750394012502424 0
0.9759112625967734 0.1298962200192939 0
1.163462384168012 0.4001348596847018 0
1.206698729810778 0.225 0
0.9249722253185645 0.6494416277789851 0
0.7933012701892219 0.6250000000000002 0
1.204034590953483 0.1204878140931854 0
0.8504547011478505 0.6903952687303145 0
1.048042921318541 0.6940428283544637 0
1.163397459621556 0.7 0
0.9000250729376659 0.6923447925242254 0
1.15739178134303 0.09080837615570414 0
1.210523957487951 0.8751991843206104 0
1.099388687733564 0.1731480150553067 0
1.15 0.1732050807568876 0
1.123500929370207 0.2212799741767676 0
0.8368685111428689 0.3054373199306708 0
1.047197863515536 0.2578490512666577 0
1.100716036266098 0.9158968380528342 0
0.9251013217316696 0.9623617872259866 0
0.87775240459384 0.8991838424436911 0
0.9734124800899294 0.9016816388562465 0
1.028900898772135 0.9551582398731446 0
0.9005812713628758 0.433246759296896 0
0.9263294412444518 0.3897056524156574 0
1.121908023329611 0.5750000000000002 0
1.141123190556635 0.9115729715706699 0
0.9235736345952809 0.2101103299231122 0
0.9289547596146597 0.1269573554842691 0
1.174088397038564 0.9529395857448634 0
0.8250527869368149 0.9579046655769559 0
1.208224568407315 0.07453832209063382 0
0.8290927303850115 0.04707274220393942 0
0.90444938266177 0.08329556034721869 0
0.9034715304998342 0.348368326066994 0
0.830713332137202 0.6500536943061995 0
0.7875957172556149 0.3741305366598587 0
0.8329695161735141 0.9037936758548002 0
0.8324471873172036 0.5566589846522013 0
0.7841579322378638 0.7250000000000005 0
1.042071731796697 0.524192630052049 0
1.16850841573949 0.7417153775432881 0
0.7833448434842061 0.4750000000000001 0
1.042125486785464 0.4283321831211032 0
1.16676659794316 0.1370053423181644 0
0.8339745962155625 0.8175426480542958 0
1.16602540378444 0.8175426480542927 0
1.168870236790418 0.2094791281149713 0
0.8798815760609136 0.3152399421898567 0
1.089230484541328 0.5999999999999995 0
1.088937086409578 0.6992074991670032 0
0.911518557459532 0.2515626706367079 0
1.039667751710006 0.3384607666478775 0
1.213397459621556 0.963397459621556 0
0.7866025403784439 0.963397459621556 0
0.7866025403784437 0.03660254037844363 0
1.213397459621556 0.03660254037844379 0
1.087681793954486 0.2533596861856151 0
1.063198355858716 0.902512991551808 0
0.8204897448668527 0.3494620207057153 0
0.9129471022052614 0.1628903856117357 0
0.8645504661042669 0.07757575719152876 0
1.179665086689639 0.8983125661866704 0
0.8184037684119332 0.8500000000000002 0
1.18159623158807 0.8500000000000001 0
2 4 0 102
644
645
646
647
648
649
650
651
652
653
654
655
656
657
658
659
660
661
662
663
664
665
666
667
668
669
670
671
672
673
674
675
676
677
678
679
680
681
682
683
684
685
686
687
688
689
690
691
692
693
694
695
696
697
698
699
700
701
702
703
704
705
706
707
708
709
710
711
712
713
714
715
716
717
718
719
720
721
722
723
724
725
726
727
728
729
730
731
732
733
734
735
736
737
738
739
740
741
742
743
744
745
1.702499955940919 0.7680448531544919 0
1.293301270189222 0.725 0
1.524832438787559 0.5427624062477812 0
1.475 0.9566987298107781 0
1.293301270189222 0.825 0
1.705710024329687 0.6743620547575087 0
1.425 0.5433012701892219 0
1.575 0.9566987298107781 0
1.627427625515757 0.5427423041709967 0
1.377010598383811 0.9602038715518298 0
1.295692453468563 0.6240773364395243 0
1.705637451117544 0.8739792335814525 0
1.291474870207441 0.9247033841503387 0
1.706205923124516 0.5813368262390679 0
1.32445409222447 0.5428665539043694 0
1.672277972705285 0.9522523585948801 0
1.372829677369354 0.5446775168070097 0
1.4 0.5866025403784436 0
1.449832438787559 0.5865057988673354 0
1.426635877598647 0.6289270890253559 0
1.475472657779326 0.6289717806891948 0
1.450679915583356 0.6726972999863589 0
1.5 0.6732050807568878 0
1.475441812284253 0.7162320652839562 0
1.525073635380708 0.7164606366690842 0
1.50008590794416 0.7597542878121352 0
1.450416446391762 0.7605071012211402 0
1.550026590554144 0.7597911132019615 0
1.525018749749717 0.8030972511151259 0
1.550861973521644 0.6711822536239096 0
1.57500755671731 0.8031041999674209 0
1.395634667925666 0.6732474114982574 0
1.600005691211909 0.7598040879202481 0
1.55000438441117 0.8464074395860155 0
1.50000385569348 0.8464077678242441 0
1.600001990188079 0.8464089259662937 0
1.524999999999999 0.8897114317029975 0
1.474999999999999 0.8897114317029973 0
1.450000642615579 0.84640976256552 0
1.424999999999999 0.889711431702997 0
1.400000107102596 0.8464100950223992 0
1.375946624976901 0.8891449387204267 0
1.342701067383623 0.8483805607239112 0
1.372448078765666 0.8022282668181315 0
1.62410508006466 0.8025891660838453 0
1.657152876051398 0.8482294146561945 0
1.624489120357658 0.8892503340888122 0
1.649999999999999 0.7598076211353322 0
1.625029993645564 0.7156142131570763 0
1.674931630169186 0.7185296506228527 0
1.652495297616399 0.6723896416956027 0
1.679062897422612 0.6292162791646432 0
1.629561872536942 0.6272881391847591 0
1.602094801882629 0.6708709893675014 0
1.578486317225411 0.6260554529482067 0
1.52648673870941 0.6271214281639315 0
1.656366551236095 0.5853839740179549 0
1.622950057521039 0.9592268749865722 0
1.294347945330004 0.6747445768599863 0
1.337974312935767 0.6997704673981994 0
1.343901928625268 0.7560669697220366 0
1.380896373521773 0.7219846640400273 0
1.344002540278168 0.6480233876370002 0
1.344835321736922 0.5925484947535851 0
1.576761044325103 0.5426124632260858 0
1.425 0.9566987298107781 0
1.293075108213062 0.8746806574790417 0
1.574999999999999 0.8897114317029977 0
1.575515447699433 0.7156205489899635 0
1.475087600399116 0.8032141769771197 0
1.706698729810778 0.825 0
1.424658812545786 0.8040399094070393 0
1.293348195324483 0.7752632136662692 0
1.474776585050079 0.543098594436022 0
1.525 0.9566987298107781 0
1.500233476518989 0.585401635700119 0
1.426439098730388 0.7164573444568713 0
1.552517702868962 0.5850289415712353 0
1.291908658248859 0.575868869040034 0
1.710054087058741 0.9232576995094435 0
1.327953305069545 0.953072828011516 0
1.673546657548604 0.5411307654237683 0
1.604887618769261 0.5852428460307535 0
1.330973441498086 0.9 0
1.399924729019718 0.7635545978513906 0
1.669011638908062 0.8999171452587716 0
1.669615242270663 0.8000000000000008 0
1.329140108057653 0.8013878021860696 0
1.716300932588857 0.7242678341594572 0
1.399999999999999 0.9232050807568871 0
1.449999999999999 0.9232050807568875 0
1.549999999999999 0.9232050807568877 0
1.499999999999999 0.9232050807568876 0
1.599999999999999 0.9232050807568875 0
1.382221681507881 0.6258697846585285 0
1.719064978189682 0.625 0
1.286602540378444 0.9633974596215562 0
1.713397459621556 0.5366025403784438 0
1.286602540378444 0.5366025403784438 0
1.713397459621556 0.9633974596215561 0
1.638510504904849 0.9243231364570998 0
1.362376793985668 0.9251253438081319 0
$EndNodes
$Elements
7 1402 1 1402
1 9 1 10
1 5 46 
2 46 47 
3 47 48 
4 48 49 
5 49 50 
6 50 51 
7 51 52 
8 52 53 
9 53 54 
10 54 6 
1 12 1 10
11 7 61 
12 61 62 
13 62 63 
14 63 64 
15 64 65 
16 65 66 
17 66 67 
18 67 68 
19 68 69 
20 69 8 
1 13 1 20
21 8 70 
22 70 71 
23 71 72 
24 72 73 
25 73 74 
26 74 75 
27 75 76 
28 76 77 
29 77 78 
30 78 79 
31 79 80 
32 80 81 
33 81 82 
34 82 83 
35 83 84 
36 84 85 
37 85 86 
38 86 87 
39 87 88 
40 88 5 
2 1 2 484
41 236 308 303 
42 329 336 174 
43 174 362 329 
44 236 281 227 
45 176 309 283 
46 272 274 164 
47 227 281 246 
48 345 348 38 
49 303 341 236 
50 248 348 345 
51 283 340 176 
52 303 308 245 
53 164 363 272 
54 69 275 68 
55 270 271 171 
56 69 367 275 
57 271 272 171 
58 236 341 281 
59 309 342 283 
60 178 336 329 
61 265 362 301 
62 347 348 248 
63 243 347 248 
64 337 339 179 
65 247 340 283 
66 344 359 250 
67 219 355 346 
68 343 349 252 
69 273 282 220 
70 338 340 288 
71 271 273 272 
72 274 335 240 
73 301 364 265 
74 271 282 273 
75 273 335 274 
76 281 339 246 
77 301 362 174 
78 337 370 339 
79 220 335 273 
80 273 274 272 
81 171 356 270 
82 346 355 292 
83 237 349 343 
84 231 359 344 
85 274 342 164 
86 261 262 251 
87 259 261 158 
88 261 277 158 
89 251 277 261 
90 158 263 259 
91 253 289 256 
92 160 293 78 
93 43 263 44 
94 44 263 158 
95 329 334 304 
96 255 263 168 
97 41 253 42 
98 59 163 58 
99 230 238 228 
100 180 269 177 
101 181 269 180 
102 198 279 213 
103 57 252 175 
104 249 250 163 
105 59 249 163 
106 235 269 181 
107 188 278 191 
108 78 293 77 
109 182 183 181 
110 187 298 220 
111 214 228 215 
112 4 288 173 
113 173 306 35 
114 42 253 168 
115 167 181 180 
116 280 281 172 
117 186 278 188 
118 204 276 202 
119 71 180 177 
120 81 311 169 
121 42 168 43 
122 183 282 235 
123 192 305 190 
124 202 276 212 
125 228 229 215 
126 231 307 218 
127 235 282 271 
128 284 286 285 
129 58 252 57 
130 72 180 71 
131 169 284 80 
132 253 254 168 
133 229 239 233 
134 254 318 257 
135 168 263 43 
136 65 164 64 
137 71 177 70 
138 73 167 72 
139 76 159 75 
140 82 311 81 
141 87 304 86 
142 302 303 165 
143 218 307 208 
144 45 277 1 
145 52 172 51 
146 163 252 58 
147 170 300 85 
148 194 312 219 
149 203 204 202 
150 289 290 256 
151 258 260 259 
152 287 311 299 
153 1 277 249 
154 179 280 53 
155 80 284 79 
156 85 300 84 
157 266 267 159 
158 269 275 177 
159 198 213 196 
160 210 222 218 
161 222 226 218 
162 253 256 254 
163 1 249 59 
164 4 173 35 
165 41 289 253 
166 77 266 76 
167 76 266 159 
168 184 320 234 
169 190 305 214 
170 199 200 198 
171 203 217 205 
172 229 232 215 
173 233 240 232 
174 247 283 233 
175 259 263 255 
176 285 295 294 
177 60 288 4 
178 67 171 66 
179 75 315 74 
180 200 279 198 
181 201 203 202 
182 203 205 204 
183 206 211 204 
184 207 209 208 
185 210 218 208 
186 210 308 222 
187 245 308 221 
188 225 265 245 
189 234 320 319 
190 249 277 251 
191 36 306 166 
192 52 280 172 
193 57 175 56 
194 159 315 75 
195 79 160 78 
196 83 296 82 
197 84 161 83 
198 178 304 87 
199 162 290 289 
200 169 287 286 
201 215 298 189 
202 194 219 192 
203 205 206 204 
204 205 317 207 
205 209 316 224 
206 214 230 228 
207 260 262 261 
208 270 275 269 
209 39 162 40 
210 77 293 266 
211 159 319 315 
212 160 294 293 
213 167 314 182 
214 278 310 191 
215 201 202 200 
216 211 276 204 
217 207 208 206 
218 209 221 210 
219 221 308 210 
220 226 231 218 
221 224 316 242 
222 238 264 228 
223 230 243 238 
224 235 270 269 
225 249 251 250 
226 293 294 268 
227 36 166 37 
228 161 296 83 
229 84 300 161 
230 161 297 296 
231 254 255 168 
232 187 220 185 
233 196 312 194 
234 195 197 196 
235 197 198 196 
236 197 199 198 
237 223 313 201 
238 217 317 205 
239 207 316 209 
240 209 224 221 
241 224 242 241 
242 227 237 226 
243 260 261 259 
244 299 311 296 
245 48 174 47 
246 50 165 49 
247 53 280 52 
248 79 284 160 
249 86 170 85 
250 88 178 87 
251 167 182 181 
252 169 286 284 
253 169 311 287 
254 220 282 185 
255 234 278 186 
256 189 298 187 
257 191 192 190 
258 193 194 192 
259 219 305 192 
260 193 216 195 
261 213 312 196 
262 324 325 197 
263 201 313 203 
264 206 307 211 
265 209 210 208 
266 239 247 233 
267 233 283 240 
268 290 291 256 
269 266 268 267 
270 40 289 41 
271 162 289 40 
272 64 309 63 
273 164 309 64 
274 86 304 170 
275 224 225 221 
276 256 318 254 
277 297 299 296 
278 44 158 45 
279 63 176 62 
280 81 169 80 
281 183 235 181 
282 188 189 187 
283 188 190 189 
284 214 215 189 
285 193 195 194 
286 195 196 194 
287 199 201 200 
288 202 212 200 
289 203 313 217 
290 208 307 206 
291 241 244 225 
292 244 265 225 
293 235 271 270 
294 258 259 255 
295 290 292 291 
296 186 187 185 
297 191 193 192 
298 199 223 201 
299 212 279 200 
300 222 227 226 
301 224 241 225 
302 257 258 255 
303 158 277 45 
304 50 302 165 
305 54 179 53 
306 296 311 82 
307 205 207 206 
308 232 298 215 
309 222 308 236 
310 254 257 255 
311 35 306 36 
312 172 302 51 
313 63 309 176 
314 184 186 185 
315 184 234 186 
316 186 188 187 
317 193 310 216 
318 225 245 221 
319 229 233 232 
320 278 321 310 
321 319 320 315 
322 49 301 48 
323 48 301 174 
324 74 314 73 
325 73 314 167 
326 284 285 160 
327 182 184 183 
328 188 191 190 
329 207 317 316 
330 222 236 227 
331 243 248 238 
332 266 293 268 
333 165 301 49 
334 285 294 160 
335 184 185 183 
336 214 305 230 
337 227 246 237 
338 229 264 239 
339 74 315 314 
340 228 264 229 
341 285 326 295 
342 182 320 184 
343 319 321 234 
344 167 180 72 
345 314 320 182 
346 291 318 256 
347 323 324 216 
348 295 323 294 
349 197 325 199 
350 51 302 50 
351 315 320 314 
352 190 214 189 
353 185 282 183 
354 321 322 310 
355 267 322 321 
356 191 310 193 
357 234 321 278 
358 326 327 223 
359 295 325 324 
360 267 319 159 
361 267 321 319 
362 294 323 268 
363 310 322 216 
364 216 324 195 
365 268 323 322 
366 322 323 216 
367 244 334 329 
368 295 326 325 
369 268 322 267 
370 286 326 285 
371 223 327 313 
372 295 324 323 
373 199 325 223 
374 299 328 287 
375 316 331 242 
376 286 327 326 
377 300 332 161 
378 297 330 299 
379 170 333 300 
380 297 331 330 
381 325 326 223 
382 195 324 197 
383 287 327 286 
384 300 333 332 
385 313 328 217 
386 304 334 170 
387 299 330 328 
388 331 332 242 
389 170 334 333 
390 178 329 304 
391 328 330 217 
392 327 328 313 
393 330 331 317 
394 287 328 327 
395 217 330 317 
396 317 331 316 
397 161 332 297 
398 332 333 242 
399 297 332 331 
400 242 333 241 
401 241 334 244 
402 333 334 241 
403 240 335 232 
404 298 335 220 
405 232 335 298 
406 340 369 288 
407 292 347 243 
408 243 346 292 
409 56 337 55 
410 47 336 46 
411 62 338 61 
412 280 339 281 
413 272 363 171 
414 281 341 172 
415 302 341 303 
416 174 336 47 
417 175 337 56 
418 176 338 62 
419 251 344 250 
420 163 343 252 
421 219 346 305 
422 37 345 38 
423 230 346 243 
424 38 348 39 
425 290 347 292 
426 67 356 171 
427 237 359 226 
428 231 360 307 
429 248 361 238 
430 329 362 244 
431 65 363 164 
432 171 363 66 
433 165 364 301 
434 283 342 240 
435 5 365 88 
436 46 365 5 
437 275 367 177 
438 70 367 8 
439 8 367 69 
440 7 366 60 
441 55 368 6 
442 61 366 7 
443 6 368 54 
444 179 339 280 
445 164 342 309 
446 172 341 302 
447 240 342 274 
448 275 356 68 
449 245 364 303 
450 176 340 338 
451 288 369 173 
452 343 359 237 
453 344 360 231 
454 345 361 248 
455 262 344 251 
456 250 343 163 
457 162 347 290 
458 166 345 37 
459 162 348 347 
460 305 346 230 
461 39 348 162 
462 265 364 245 
463 350 360 262 
464 357 361 166 
465 246 349 237 
466 252 349 175 
467 351 352 212 
468 258 352 351 
469 212 352 279 
470 211 350 276 
471 258 351 260 
472 260 350 262 
473 276 351 212 
474 279 353 213 
475 352 353 279 
476 354 355 312 
477 312 355 219 
478 257 352 258 
479 257 353 352 
480 353 354 213 
481 318 353 257 
482 264 357 239 
483 318 354 353 
484 213 354 312 
485 173 358 306 
486 260 351 350 
487 291 355 354 
488 68 356 67 
489 270 356 275 
490 292 355 291 
491 350 351 276 
492 291 354 318 
493 239 358 247 
494 306 357 166 
495 357 358 239 
496 306 358 357 
497 211 360 350 
498 264 361 357 
499 226 359 231 
500 307 360 211 
501 238 361 264 
502 244 362 265 
503 66 363 65 
504 303 364 165 
505 175 370 337 
506 337 368 55 
507 338 366 61 
508 336 365 46 
509 177 367 70 
510 88 365 178 
511 54 368 179 
512 60 366 288 
513 179 368 337 
514 288 366 338 
515 178 365 336 
516 250 359 343 
517 262 360 344 
518 166 361 345 
519 339 370 246 
520 247 369 340 
521 173 369 358 
522 358 369 247 
523 246 370 349 
524 349 370 175 
2 2 2 150
525 402 413 372 
526 398 417 414 
527 372 414 402 
528 414 417 388 
529 398 414 372 
530 407 426 388 
531 397 411 382 
532 401 412 400 
533 403 413 402 
534 388 426 414 
535 401 428 412 
536 410 415 381 
537 397 429 411 
538 415 427 381 
539 382 406 397 
540 393 395 375 
541 377 404 389 
542 397 406 395 
543 389 391 377 
544 395 406 375 
545 391 409 377 
546 375 409 393 
547 24 409 23 
548 380 403 402 
549 29 376 28 
550 32 400 31 
551 380 400 32 
552 376 407 383 
553 383 384 374 
554 389 404 385 
555 27 383 374 
556 386 387 385 
557 393 409 391 
558 38 398 37 
559 384 385 374 
560 21 406 382 
561 37 398 372 
562 25 377 24 
563 373 408 40 
564 42 399 41 
565 385 404 374 
566 390 392 391 
567 23 409 375 
568 25 404 377 
569 39 408 378 
570 41 399 373 
571 390 391 389 
572 33 380 32 
573 18 371 17 
574 44 405 43 
575 394 396 395 
576 22 406 21 
577 376 383 28 
578 40 408 39 
579 375 406 22 
580 380 402 401 
581 33 403 380 
582 45 381 44 
583 384 407 388 
584 380 401 400 
585 37 372 36 
586 28 383 27 
587 383 407 384 
588 34 403 33 
589 21 382 20 
590 378 398 38 
591 387 390 389 
592 43 405 379 
593 23 375 22 
594 377 409 24 
595 26 404 25 
596 27 374 26 
597 374 404 26 
598 39 378 38 
599 41 373 40 
600 43 379 42 
601 379 399 42 
602 384 388 386 
603 392 394 393 
604 387 389 385 
605 396 397 395 
606 384 386 385 
607 392 393 391 
608 394 395 393 
609 381 405 44 
610 36 413 35 
611 17 410 16 
612 30 412 29 
613 19 411 18 
614 372 413 36 
615 29 412 376 
616 18 411 371 
617 371 410 17 
618 3 422 30 
619 31 422 3 
620 20 423 2 
621 2 423 19 
622 4 424 34 
623 35 424 4 
624 16 425 1 
625 1 425 45 
626 381 427 405 
627 416 417 378 
628 386 417 416 
629 394 421 420 
630 386 416 387 
631 418 419 390 
632 378 417 398 
633 390 419 392 
634 394 420 396 
635 387 418 390 
636 416 418 387 
637 392 421 394 
638 419 421 392 
639 408 418 416 
640 373 419 418 
641 388 417 386 
642 399 419 373 
643 405 420 379 
644 420 421 379 
645 399 421 419 
646 373 418 408 
647 408 416 378 
648 379 421 399 
649 371 415 410 
650 412 428 376 
651 396 429 397 
652 411 429 371 
653 407 428 426 
654 415 429 396 
655 413 424 35 
656 30 422 412 
657 19 423 411 
658 410 425 16 
659 400 422 31 
660 45 425 381 
661 382 423 20 
662 34 424 403 
663 402 426 401 
664 414 426 402 
665 376 428 407 
666 381 425 410 
667 412 422 400 
668 403 424 413 
669 411 423 382 
670 396 427 415 
671 420 427 396 
672 426 428 401 
673 371 429 415 
674 405 427 420 
2 3 2 486
675 436 586 576 
676 590 610 585 
677 576 618 436 
678 438 600 505 
679 505 601 438 
680 446 599 525 
681 525 598 446 
682 438 598 525 
683 525 600 438 
684 585 623 590 
685 601 637 442 
686 505 637 601 
687 527 605 500 
688 500 605 597 
689 503 584 539 
690 609 616 446 
691 446 616 599 
692 492 557 555 
693 468 562 560 
694 468 631 562 
695 445 509 508 
696 539 617 503 
697 551 588 514 
698 435 508 506 
699 472 558 557 
700 531 606 533 
701 492 619 557 
702 445 510 509 
703 531 639 606 
704 566 594 568 
705 575 624 577 
706 538 625 515 
707 514 629 551 
708 555 604 492 
709 449 610 590 
710 450 611 537 
711 508 621 445 
712 593 623 444 
713 575 577 576 
714 503 614 584 
715 436 614 586 
716 607 612 543 
717 566 636 594 
718 577 624 439 
719 441 625 538 
720 435 621 508 
721 472 622 558 
722 506 617 435 
723 611 640 537 
724 557 619 472 
725 605 641 608 
726 550 551 490 
727 515 620 538 
728 510 511 509 
729 602 603 470 
730 608 641 448 
731 444 626 593 
732 444 623 585 
733 532 612 607 
734 464 596 565 
735 510 512 511 
736 511 603 602 
737 568 582 434 
738 540 571 534 
739 567 568 434 
740 567 578 564 
741 479 481 480 
742 457 459 458 
743 433 579 105 
744 468 469 467 
745 524 544 501 
746 494 499 491 
747 562 565 563 
748 97 449 96 
749 472 473 471 
750 119 442 118 
751 547 548 430 
752 502 592 455 
753 520 589 517 
754 522 523 521 
755 548 554 553 
756 555 556 554 
757 536 543 437 
758 434 582 102 
759 105 579 104 
760 557 558 556 
761 94 542 93 
762 109 552 546 
763 489 580 458 
764 461 463 462 
765 465 467 466 
766 558 560 559 
767 560 562 561 
768 564 581 561 
769 526 527 500 
770 101 582 444 
771 432 588 552 
772 485 486 483 
773 478 479 477 
774 483 517 482 
775 484 513 487 
776 513 514 495 
777 103 578 434 
778 106 570 433 
779 453 454 443 
780 517 589 482 
781 495 526 494 
782 519 544 524 
783 558 559 556 
784 579 581 564 
785 2 540 431 
786 129 528 128 
787 473 476 475 
788 476 478 477 
789 480 573 477 
790 484 487 485 
791 487 494 491 
792 560 561 559 
793 562 563 561 
794 563 567 564 
795 565 566 563 
796 566 568 567 
797 515 526 495 
798 3 541 451 
799 128 528 440 
800 450 528 129 
801 465 468 467 
802 488 496 474 
803 488 573 498 
804 497 506 496 
805 498 583 504 
806 502 593 592 
807 11 570 106 
808 24 539 25 
809 569 581 433 
810 433 581 579 
811 434 578 567 
812 543 545 437 
813 569 570 554 
814 559 569 556 
815 95 452 443 
816 448 591 114 
817 453 502 455 
818 30 541 3 
819 26 584 436 
820 92 545 91 
821 530 571 440 
822 449 590 452 
823 458 580 456 
824 521 575 518 
825 3 451 125 
826 93 542 437 
827 123 446 122 
828 126 571 540 
829 469 471 470 
830 473 475 474 
831 480 583 573 
832 486 519 518 
833 499 501 491 
834 506 507 496 
835 534 571 530 
836 536 580 543 
837 91 447 90 
838 437 545 92 
839 108 430 107 
840 114 591 113 
841 28 577 29 
842 109 546 108 
843 113 441 112 
844 529 530 440 
845 539 584 25 
846 442 516 118 
847 437 542 536 
848 528 529 440 
849 457 493 459 
850 461 464 463 
851 466 574 463 
852 469 472 471 
853 488 497 496 
854 519 522 521 
855 529 537 532 
856 549 550 547 
857 126 540 2 
858 29 577 439 
859 93 437 92 
860 130 450 129 
861 433 570 569 
862 455 457 456 
863 575 576 520 
864 578 579 564 
865 107 553 11 
866 29 439 30 
867 432 552 110 
868 127 571 126 
869 546 547 430 
870 507 572 496 
871 506 508 507 
872 533 535 534 
873 2 431 20 
874 464 465 463 
875 487 513 495 
876 529 531 530 
877 553 570 11 
878 101 444 100 
879 104 578 103 
880 111 432 110 
881 112 538 111 
882 453 455 454 
883 484 485 483 
884 486 544 519 
885 518 520 517 
886 549 588 551 
887 91 545 447 
888 96 452 95 
889 449 452 96 
890 121 438 120 
891 460 489 458 
892 473 474 471 
893 475 488 474 
894 481 482 480 
895 481 483 482 
896 528 537 529 
897 561 581 559 
898 563 564 561 
899 536 542 454 
900 118 516 117 
901 450 537 528 
902 456 536 454 
903 475 573 488 
904 486 517 483 
905 491 544 485 
906 494 500 499 
907 21 445 22 
908 100 585 99 
909 102 582 101 
910 454 542 443 
911 486 518 517 
912 501 544 491 
913 508 509 507 
914 529 532 531 
915 23 435 24 
916 435 539 24 
917 25 584 26 
918 26 436 27 
919 128 440 127 
920 440 571 127 
921 452 453 443 
922 453 590 502 
923 459 461 460 
924 478 490 479 
925 479 587 481 
926 482 583 480 
927 485 544 486 
928 504 589 586 
929 519 521 518 
930 444 585 100 
931 457 592 493 
932 463 574 462 
933 476 492 478 
934 499 505 501 
935 518 575 520 
936 469 470 467 
937 471 572 470 
938 474 572 471 
939 481 484 483 
940 533 534 530 
941 103 434 102 
942 106 433 105 
943 476 477 475 
944 490 587 479 
945 487 491 485 
946 583 589 504 
947 586 589 520 
948 531 533 530 
949 95 443 94 
950 443 542 94 
951 115 448 114 
952 452 590 453 
953 496 572 474 
954 573 583 498 
955 566 567 563 
956 488 498 497 
957 110 552 109 
958 455 456 454 
959 477 573 475 
960 576 586 520 
961 430 553 107 
962 439 541 30 
963 441 538 112 
964 498 503 497 
965 494 526 500 
966 546 552 549 
967 548 555 554 
968 456 580 536 
969 459 460 458 
970 461 462 460 
971 555 557 556 
972 519 524 522 
973 457 458 456 
974 498 504 503 
975 465 466 463 
976 482 589 583 
977 484 587 513 
978 113 591 441 
979 455 592 457 
980 524 525 522 
981 108 546 430 
982 548 553 430 
983 546 549 547 
984 554 570 553 
985 556 569 554 
986 104 579 578 
987 549 551 550 
988 552 588 549 
989 111 538 432 
990 514 515 495 
991 559 581 569 
992 487 495 494 
993 479 480 477 
994 481 587 484 
995 593 594 592 
996 592 594 493 
997 540 595 431 
998 535 595 534 
999 565 631 464 
1000 534 595 540 
1001 511 602 509 
1002 493 596 459 
1003 461 596 464 
1004 541 642 616 
1005 446 598 122 
1006 438 601 120 
1007 524 600 525 
1008 119 601 442 
1009 121 598 438 
1010 525 599 522 
1011 505 600 501 
1012 572 602 470 
1013 509 602 507 
1014 535 630 574 
1015 470 603 467 
1016 550 604 547 
1017 548 604 555 
1018 459 596 461 
1019 562 631 565 
1020 462 606 460 
1021 580 607 543 
1022 616 642 523 
1023 117 608 116 
1024 124 609 123 
1025 90 611 89 
1026 99 610 98 
1027 442 597 516 
1028 501 600 524 
1029 122 598 121 
1030 522 599 523 
1031 120 601 119 
1032 507 602 572 
1033 442 637 597 
1034 467 603 466 
1035 445 615 510 
1036 543 612 545 
1037 547 604 548 
1038 466 613 574 
1039 512 613 511 
1040 460 606 489 
1041 605 608 516 
1042 489 607 580 
1043 435 617 539 
1044 597 605 516 
1045 574 630 462 
1046 451 616 609 
1047 551 629 490 
1048 123 609 446 
1049 585 610 99 
1050 516 608 117 
1051 447 611 90 
1052 21 615 445 
1053 431 615 20 
1054 511 613 603 
1055 490 628 550 
1056 577 618 576 
1057 503 617 497 
1058 436 618 27 
1059 28 618 577 
1060 472 619 473 
1061 476 619 492 
1062 538 620 432 
1063 594 636 493 
1064 23 621 435 
1065 445 621 22 
1066 469 622 472 
1067 590 623 502 
1068 523 624 521 
1069 526 625 527 
1070 582 626 444 
1071 545 612 447 
1072 532 639 531 
1073 478 628 490 
1074 513 629 514 
1075 490 629 587 
1076 465 631 468 
1077 116 632 12 
1078 12 632 115 
1079 13 633 124 
1080 10 635 97 
1081 125 633 13 
1082 89 634 9 
1083 98 635 10 
1084 9 634 130 
1085 500 637 499 
1086 504 614 503 
1087 595 638 431 
1088 512 638 595 
1089 541 616 451 
1090 586 614 504 
1091 560 622 468 
1092 597 637 500 
1093 603 613 466 
1094 607 639 532 
1095 588 620 514 
1096 574 627 535 
1097 584 614 436 
1098 606 639 489 
1099 535 627 595 
1100 595 627 512 
1101 537 640 532 
1102 565 636 566 
1103 447 640 611 
1104 594 626 568 
1105 20 615 21 
1106 558 622 560 
1107 596 636 565 
1108 514 620 515 
1109 593 626 594 
1110 497 617 506 
1111 27 618 28 
1112 473 619 476 
1113 613 627 574 
1114 599 616 523 
1115 432 620 588 
1116 532 640 612 
1117 22 621 23 
1118 468 622 469 
1119 502 623 593 
1120 521 624 575 
1121 515 625 526 
1122 527 643 641 
1123 568 626 582 
1124 431 638 615 
1125 550 628 604 
1126 533 630 535 
1127 608 632 116 
1128 611 634 89 
1129 610 635 98 
1130 124 633 609 
1131 492 628 478 
1132 527 641 605 
1133 625 643 527 
1134 523 642 624 
1135 587 629 513 
1136 462 630 606 
1137 464 631 465 
1138 493 636 596 
1139 115 632 448 
1140 451 633 125 
1141 130 634 450 
1142 97 635 449 
1143 499 637 505 
1144 604 628 492 
1145 510 638 512 
1146 606 630 533 
1147 448 641 591 
1148 641 643 591 
1149 591 643 441 
1150 439 642 541 
1151 609 633 451 
1152 450 634 611 
1153 448 632 608 
1154 449 635 610 
1155 512 627 613 
1156 489 639 607 
1157 615 638 510 
1158 612 640 447 
1159 624 642 439 
1160 441 643 625 
2 4 2 242
1161 703 706 675 
1162 704 728 687 
1163 675 705 703 
1164 661 707 660 
1165 654 706 702 
1166 691 693 644 
1167 689 714 655 
1168 686 710 648 
1169 702 706 703 
1170 693 732 644 
1171 660 707 658 
1172 687 731 704 
1173 654 707 706 
1174 686 727 710 
1175 655 729 689 
1176 705 728 704 
1177 661 738 707 
1178 695 700 657 
1179 673 699 698 
1180 708 726 721 
1181 657 739 695 
1182 673 698 697 
1183 694 695 649 
1184 689 730 714 
1185 648 731 686 
1186 692 712 697 
1187 693 694 649 
1188 670 728 720 
1189 664 699 666 
1190 666 699 673 
1191 721 726 698 
1192 697 712 673 
1193 692 697 694 
1194 656 727 724 
1195 675 720 705 
1196 685 727 686 
1197 689 729 690 
1198 644 730 691 
1199 720 728 705 
1200 659 729 723 
1201 694 696 695 
1202 707 738 706 
1203 664 719 699 
1204 727 745 724 
1205 652 726 708 
1206 707 722 658 
1207 694 697 696 
1208 696 700 695 
1209 654 722 707 
1210 652 725 700 
1211 706 738 675 
1212 697 698 696 
1213 700 726 652 
1214 653 709 155 
1215 652 708 137 
1216 664 665 663 
1217 134 650 133 
1218 152 651 151 
1219 673 712 668 
1220 154 709 647 
1221 650 661 660 
1222 136 708 646 
1223 704 716 645 
1224 676 688 674 
1225 136 646 135 
1226 154 647 153 
1227 662 663 661 
1228 150 701 659 
1229 686 687 684 
1230 114 656 115 
1231 132 660 658 
1232 141 657 140 
1233 108 654 109 
1234 113 710 114 
1235 147 655 146 
1236 669 713 670 
1237 677 680 678 
1238 690 711 679 
1239 109 702 110 
1240 654 702 109 
1241 648 710 113 
1242 146 714 145 
1243 655 714 146 
1244 676 692 691 
1245 682 713 678 
1246 650 660 133 
1247 651 701 151 
1248 666 673 668 
1249 665 675 663 
1250 668 712 671 
1251 692 693 691 
1252 713 715 670 
1253 110 645 111 
1254 111 716 112 
1255 138 652 137 
1256 145 644 144 
1257 156 653 155 
1258 650 662 661 
1259 672 713 669 
1260 671 676 674 
1261 677 678 672 
1262 676 691 688 
1263 133 660 132 
1264 134 717 650 
1265 151 701 150 
1266 703 704 645 
1267 688 689 679 
1268 685 686 684 
1269 703 705 704 
1270 645 716 111 
1271 650 717 662 
1272 152 718 651 
1273 662 664 663 
1274 664 666 665 
1275 677 711 680 
1276 683 684 682 
1277 666 668 667 
1278 676 712 692 
1279 666 667 665 
1280 668 671 669 
1281 671 674 672 
1282 678 713 672 
1283 674 688 679 
1284 681 682 678 
1285 681 683 682 
1286 682 715 713 
1287 132 658 131 
1288 150 659 149 
1289 669 670 667 
1290 646 717 135 
1291 647 718 153 
1292 671 712 676 
1293 680 681 678 
1294 137 708 136 
1295 155 709 154 
1296 112 648 113 
1297 143 649 142 
1298 679 711 677 
1299 114 710 656 
1300 668 669 667 
1301 702 703 645 
1302 135 717 134 
1303 153 718 152 
1304 112 716 648 
1305 110 702 645 
1306 145 714 644 
1307 674 679 677 
1308 689 690 679 
1309 692 694 693 
1310 674 677 672 
1311 684 715 682 
1312 683 685 684 
1313 671 672 669 
1314 687 715 684 
1315 659 744 729 
1316 662 719 664 
1317 646 719 717 
1318 646 721 719 
1319 699 721 698 
1320 670 720 667 
1321 665 720 675 
1322 717 719 662 
1323 719 721 699 
1324 148 723 147 
1325 107 722 108 
1326 157 724 156 
1327 649 732 693 
1328 139 725 138 
1329 667 720 665 
1330 138 725 652 
1331 715 728 670 
1332 696 726 700 
1333 704 731 716 
1334 688 730 689 
1335 686 731 687 
1336 708 721 646 
1337 695 739 649 
1338 156 724 653 
1339 147 723 655 
1340 108 722 654 
1341 700 725 657 
1342 143 732 649 
1343 644 732 144 
1344 675 738 663 
1345 141 739 657 
1346 649 739 142 
1347 131 742 11 
1348 12 740 157 
1349 14 741 139 
1350 15 743 148 
1351 11 742 107 
1352 115 740 12 
1353 140 741 14 
1354 149 743 15 
1355 698 726 696 
1356 710 727 656 
1357 687 728 715 
1358 714 730 644 
1359 691 730 688 
1360 716 731 648 
1361 723 729 655 
1362 701 744 659 
1363 144 732 143 
1364 735 736 680 
1365 718 736 735 
1366 683 734 733 
1367 733 734 709 
1368 651 737 701 
1369 653 733 709 
1370 709 734 647 
1371 647 736 718 
1372 681 734 683 
1373 711 735 680 
1374 690 737 711 
1375 683 733 685 
1376 718 735 651 
1377 680 736 681 
1378 734 736 647 
1379 711 737 735 
1380 681 736 734 
1381 735 737 651 
1382 724 745 653 
1383 663 738 661 
1384 157 740 724 
1385 148 743 723 
1386 107 742 722 
1387 142 739 141 
1388 659 743 149 
1389 658 742 131 
1390 656 740 115 
1391 657 741 140 
1392 139 741 725 
1393 723 743 659 
1394 722 742 658 
1395 724 740 656 
1396 725 741 657 
1397 685 745 727 
1398 729 744 690 
1399 737 744 701 
1400 690 744 737 
1401 653 745 733 
1402 733 745 685 
$EndElements
