<?xml version="1.0" encoding="UTF-8"?>
<svg xmlns="http://www.w3.org/2000/svg" xmlns:xlink="http://www.w3.org/1999/xlink" width="450pt" height="338pt" viewBox="0 0 450 338" version="1.1">
<g id="surface1-qxohLR6b">
<path style=" stroke:none;fill-rule:nonzero;fill:rgb(100%,100%,100%);fill-opacity:1;" d="M 0 0 L 450 0 L 450 337.5 L 0 337.5 Z M 0 0 "/>
<path style="fill:none;stroke-width:2;stroke-linecap:butt;stroke-linejoin:miter;stroke:rgb(0%,0%,0%);stroke-opacity:1;stroke-miterlimit:2;" d="M 41.817708 225 L 170.911458 225 " transform="matrix(0.75,0,0,0.75,0,0)"/>
<path style="fill:none;stroke-width:2;stroke-linecap:butt;stroke-linejoin:miter;stroke:rgb(0%,0%,0%);stroke-opacity:1;stroke-miterlimit:2;" d="M 170.911458 225 L 300 225 " transform="matrix(0.75,0,0,0.75,0,0)"/>
<path style="fill:none;stroke-width:2;stroke-linecap:butt;stroke-linejoin:miter;stroke:rgb(0%,0%,0%);stroke-opacity:1;stroke-miterlimit:2;" d="M 300 225 L 429.088542 225 " transform="matrix(0.75,0,0,0.75,0,0)"/>
<path style="fill:none;stroke-width:2;stroke-linecap:butt;stroke-linejoin:miter;stroke:rgb(0%,0%,0%);stroke-opacity:1;stroke-miterlimit:2;" d="M 429.088542 225 L 558.182292 225 " transform="matrix(0.75,0,0,0.75,0,0)"/>
<path style=" stroke:none;fill-rule:nonzero;fill:rgb(100%,38.82353%,27.843139%);fill-opacity:1;" d="M 33.214844 168.75 C 33.214844 166.28125 29.511719 166.28125 29.511719 168.75 C 29.511719 171.21875 33.214844 171.21875 33.214844 168.75 Z M 33.214844 168.75 "/>
<path style=" stroke:none;fill-rule:nonzero;fill:rgb(100%,38.82353%,27.843139%);fill-opacity:1;" d="M 130.03125 168.75 C 130.03125 166.28125 126.332031 166.28125 126.332031 168.75 C 126.332031 171.21875 130.03125 171.21875 130.03125 168.75 Z M 130.03125 168.75 "/>
<path style=" stroke:none;fill-rule:nonzero;fill:rgb(100%,38.82353%,27.843139%);fill-opacity:1;" d="M 226.851562 168.75 C 226.851562 166.28125 223.148438 166.28125 223.148438 168.75 C 223.148438 171.21875 226.851562 171.21875 226.851562 168.75 Z M 226.851562 168.75 "/>
<path style=" stroke:none;fill-rule:nonzero;fill:rgb(100%,38.82353%,27.843139%);fill-opacity:1;" d="M 323.667969 168.75 C 323.667969 166.28125 319.96875 166.28125 319.96875 168.75 C 319.96875 171.21875 323.667969 171.21875 323.667969 168.75 Z M 323.667969 168.75 "/>
<path style=" stroke:none;fill-rule:nonzero;fill:rgb(100%,38.82353%,27.843139%);fill-opacity:1;" d="M 420.488281 168.75 C 420.488281 166.28125 416.785156 166.28125 416.785156 168.75 C 416.785156 171.21875 420.488281 171.21875 420.488281 168.75 Z M 420.488281 168.75 "/>
</g>
</svg>
