<?xml version="1.0" encoding="UTF-8"?>
<svg xmlns="http://www.w3.org/2000/svg" xmlns:xlink="http://www.w3.org/1999/xlink" width="450" height="338" viewBox="0 0 450 338">
<defs>
<clipPath id="clip-0-61d3197f">
<path clip-rule="nonzero" d="M 44 143.25 L 64 143.25 L 64 159 L 44 159 Z M 44 143.25 "/>
</clipPath>
<clipPath id="clip-1-61d3197f">
<path clip-rule="nonzero" d="M 50 143.25 L 70 143.25 L 70 156 L 50 156 Z M 50 143.25 "/>
</clipPath>
<clipPath id="clip-2-61d3197f">
<path clip-rule="nonzero" d="M 57 143.25 L 77 143.25 L 77 153 L 57 153 Z M 57 143.25 "/>
</clipPath>
<clipPath id="clip-3-61d3197f">
<path clip-rule="nonzero" d="M 63 143.25 L 83 143.25 L 83 153 L 63 153 Z M 63 143.25 "/>
</clipPath>
<clipPath id="clip-4-61d3197f">
<path clip-rule="nonzero" d="M 70 143.25 L 90 143.25 L 90 156 L 70 156 Z M 70 143.25 "/>
</clipPath>
<clipPath id="clip-5-61d3197f">
<path clip-rule="nonzero" d="M 76 143.25 L 96 143.25 L 96 159 L 76 159 Z M 76 143.25 "/>
</clipPath>
<clipPath id="clip-6-61d3197f">
<path clip-rule="nonzero" d="M 121 178 L 141 178 L 141 194.25 L 121 194.25 Z M 121 178 "/>
</clipPath>
<clipPath id="clip-7-61d3197f">
<path clip-rule="nonzero" d="M 128 182 L 148 182 L 148 194.25 L 128 194.25 Z M 128 182 "/>
</clipPath>
<clipPath id="clip-8-61d3197f">
<path clip-rule="nonzero" d="M 134 184 L 154 184 L 154 194.25 L 134 194.25 Z M 134 184 "/>
</clipPath>
<clipPath id="clip-9-61d3197f">
<path clip-rule="nonzero" d="M 141 184 L 161 184 L 161 194.25 L 141 194.25 Z M 141 184 "/>
</clipPath>
<clipPath id="clip-10-61d3197f">
<path clip-rule="nonzero" d="M 147 182 L 167 182 L 167 194.25 L 147 194.25 Z M 147 182 "/>
</clipPath>
<clipPath id="clip-11-61d3197f">
<path clip-rule="nonzero" d="M 154 178 L 174 178 L 174 194.25 L 154 194.25 Z M 154 178 "/>
</clipPath>
<clipPath id="clip-12-61d3197f">
<path clip-rule="nonzero" d="M 199 143.25 L 219 143.25 L 219 159 L 199 159 Z M 199 143.25 "/>
</clipPath>
<clipPath id="clip-13-61d3197f">
<path clip-rule="nonzero" d="M 205 143.25 L 225 143.25 L 225 156 L 205 156 Z M 205 143.25 "/>
</clipPath>
<clipPath id="clip-14-61d3197f">
<path clip-rule="nonzero" d="M 212 143.25 L 232 143.25 L 232 153 L 212 153 Z M 212 143.25 "/>
</clipPath>
<clipPath id="clip-15-61d3197f">
<path clip-rule="nonzero" d="M 218 143.25 L 238 143.25 L 238 153 L 218 153 Z M 218 143.25 "/>
</clipPath>
<clipPath id="clip-16-61d3197f">
<path clip-rule="nonzero" d="M 225 143.25 L 245 143.25 L 245 156 L 225 156 Z M 225 143.25 "/>
</clipPath>
<clipPath id="clip-17-61d3197f">
<path clip-rule="nonzero" d="M 231 143.25 L 251 143.25 L 251 159 L 231 159 Z M 231 143.25 "/>
</clipPath>
<clipPath id="clip-18-61d3197f">
<path clip-rule="nonzero" d="M 276 178 L 296 178 L 296 194.25 L 276 194.25 Z M 276 178 "/>
</clipPath>
<clipPath id="clip-19-61d3197f">
<path clip-rule="nonzero" d="M 283 182 L 303 182 L 303 194.25 L 283 194.25 Z M 283 182 "/>
</clipPath>
<clipPath id="clip-20-61d3197f">
<path clip-rule="nonzero" d="M 289 184 L 309 184 L 309 194.25 L 289 194.25 Z M 289 184 "/>
</clipPath>
<clipPath id="clip-21-61d3197f">
<path clip-rule="nonzero" d="M 296 184 L 316 184 L 316 194.25 L 296 194.25 Z M 296 184 "/>
</clipPath>
<clipPath id="clip-22-61d3197f">
<path clip-rule="nonzero" d="M 302 182 L 322 182 L 322 194.25 L 302 194.25 Z M 302 182 "/>
</clipPath>
<clipPath id="clip-23-61d3197f">
<path clip-rule="nonzero" d="M 309 178 L 329 178 L 329 194.25 L 309 194.25 Z M 309 178 "/>
</clipPath>
<clipPath id="clip-24-61d3197f">
<path clip-rule="nonzero" d="M 354 143.25 L 374 143.25 L 374 159 L 354 159 Z M 354 143.25 "/>
</clipPath>
<clipPath id="clip-25-61d3197f">
<path clip-rule="nonzero" d="M 360 143.25 L 380 143.25 L 380 156 L 360 156 Z M 360 143.25 "/>
</clipPath>
<clipPath id="clip-26-61d3197f">
<path clip-rule="nonzero" d="M 367 143.25 L 387 143.25 L 387 153 L 367 153 Z M 367 143.25 "/>
</clipPath>
<clipPath id="clip-27-61d3197f">
<path clip-rule="nonzero" d="M 373 143.25 L 393 143.25 L 393 153 L 373 153 Z M 373 143.25 "/>
</clipPath>
<clipPath id="clip-28-61d3197f">
<path clip-rule="nonzero" d="M 380 143.25 L 400 143.25 L 400 156 L 380 156 Z M 380 143.25 "/>
</clipPath>
<clipPath id="clip-29-61d3197f">
<path clip-rule="nonzero" d="M 386 143.25 L 406 143.25 L 406 159 L 386 159 Z M 386 143.25 "/>
</clipPath>
</defs>
<path fill-rule="nonzero" fill="rgb(100%, 100%, 100%)" fill-opacity="1" d="M 0 0 L 450 0 L 450 337.5 L 0 337.5 Z M 0 0 "/>
<path fill="none" stroke-width="3" stroke-linecap="butt" stroke-linejoin="miter" stroke="rgb(0%, 0%, 0%)" stroke-opacity="1" stroke-miterlimit="2" d="M 41.817708 225 L 50.421875 217 " transform="matrix(0.75, 0, 0, 0.75, 0, 0)"/>
<path fill="none" stroke-width="3" stroke-linecap="butt" stroke-linejoin="miter" stroke="rgb(0%, 0%, 0%)" stroke-opacity="1" stroke-miterlimit="2" d="M 50.421875 217 L 59.03125 209.546875 " transform="matrix(0.75, 0, 0, 0.75, 0, 0)"/>
<path fill="none" stroke-width="3" stroke-linecap="butt" stroke-linejoin="miter" stroke="rgb(0%, 0%, 0%)" stroke-opacity="1" stroke-miterlimit="2" d="M 59.03125 209.546875 L 67.635417 203.145833 " transform="matrix(0.75, 0, 0, 0.75, 0, 0)"/>
<g clip-path="url(#clip-0-61d3197f)">
<path fill="none" stroke-width="3" stroke-linecap="butt" stroke-linejoin="miter" stroke="rgb(0%, 0%, 0%)" stroke-opacity="1" stroke-miterlimit="2" d="M 67.635417 203.145833 L 76.244792 198.234375 " transform="matrix(0.75, 0, 0, 0.75, 0, 0)"/>
</g>
<g clip-path="url(#clip-1-61d3197f)">
<path fill="none" stroke-width="3" stroke-linecap="butt" stroke-linejoin="miter" stroke="rgb(0%, 0%, 0%)" stroke-opacity="1" stroke-miterlimit="2" d="M 76.244792 198.234375 L 84.848958 195.145833 " transform="matrix(0.75, 0, 0, 0.75, 0, 0)"/>
</g>
<g clip-path="url(#clip-2-61d3197f)">
<path fill="none" stroke-width="3" stroke-linecap="butt" stroke-linejoin="miter" stroke="rgb(0%, 0%, 0%)" stroke-opacity="1" stroke-miterlimit="2" d="M 84.848958 195.145833 L 93.453125 194.088542 " transform="matrix(0.75, 0, 0, 0.75, 0, 0)"/>
</g>
<g clip-path="url(#clip-3-61d3197f)">
<path fill="none" stroke-width="3" stroke-linecap="butt" stroke-linejoin="miter" stroke="rgb(0%, 0%, 0%)" stroke-opacity="1" stroke-miterlimit="2" d="M 93.453125 194.088542 L 102.0625 195.145833 " transform="matrix(0.75, 0, 0, 0.75, 0, 0)"/>
</g>
<g clip-path="url(#clip-4-61d3197f)">
<path fill="none" stroke-width="3" stroke-linecap="butt" stroke-linejoin="miter" stroke="rgb(0%, 0%, 0%)" stroke-opacity="1" stroke-miterlimit="2" d="M 102.0625 195.145833 L 110.666667 198.234375 " transform="matrix(0.75, 0, 0, 0.75, 0, 0)"/>
</g>
<g clip-path="url(#clip-5-61d3197f)">
<path fill="none" stroke-width="3" stroke-linecap="butt" stroke-linejoin="miter" stroke="rgb(0%, 0%, 0%)" stroke-opacity="1" stroke-miterlimit="2" d="M 110.666667 198.234375 L 119.270833 203.145833 " transform="matrix(0.75, 0, 0, 0.75, 0, 0)"/>
</g>
<path fill="none" stroke-width="3" stroke-linecap="butt" stroke-linejoin="miter" stroke="rgb(0%, 0%, 0%)" stroke-opacity="1" stroke-miterlimit="2" d="M 119.270833 203.145833 L 127.880208 209.546875 " transform="matrix(0.75, 0, 0, 0.75, 0, 0)"/>
<path fill="none" stroke-width="3" stroke-linecap="butt" stroke-linejoin="miter" stroke="rgb(0%, 0%, 0%)" stroke-opacity="1" stroke-miterlimit="2" d="M 127.880208 209.546875 L 136.484375 217 " transform="matrix(0.75, 0, 0, 0.75, 0, 0)"/>
<path fill="none" stroke-width="3" stroke-linecap="butt" stroke-linejoin="miter" stroke="rgb(0%, 0%, 0%)" stroke-opacity="1" stroke-miterlimit="2" d="M 136.484375 217 L 145.088542 225 " transform="matrix(0.75, 0, 0, 0.75, 0, 0)"/>
<path fill="none" stroke-width="3" stroke-linecap="butt" stroke-linejoin="miter" stroke="rgb(0%, 0%, 0%)" stroke-opacity="1" stroke-miterlimit="2" d="M 145.088542 225 L 153.697917 233 " transform="matrix(0.75, 0, 0, 0.75, 0, 0)"/>
<path fill="none" stroke-width="3" stroke-linecap="butt" stroke-linejoin="miter" stroke="rgb(0%, 0%, 0%)" stroke-opacity="1" stroke-miterlimit="2" d="M 153.697917 233 L 162.302083 240.453125 " transform="matrix(0.75, 0, 0, 0.75, 0, 0)"/>
<path fill="none" stroke-width="3" stroke-linecap="butt" stroke-linejoin="miter" stroke="rgb(0%, 0%, 0%)" stroke-opacity="1" stroke-miterlimit="2" d="M 162.302083 240.453125 L 170.911458 246.854167 " transform="matrix(0.75, 0, 0, 0.75, 0, 0)"/>
<g clip-path="url(#clip-6-61d3197f)">
<path fill="none" stroke-width="3" stroke-linecap="butt" stroke-linejoin="miter" stroke="rgb(0%, 0%, 0%)" stroke-opacity="1" stroke-miterlimit="2" d="M 170.911458 246.854167 L 179.515625 251.765625 " transform="matrix(0.75, 0, 0, 0.75, 0, 0)"/>
</g>
<g clip-path="url(#clip-7-61d3197f)">
<path fill="none" stroke-width="3" stroke-linecap="butt" stroke-linejoin="miter" stroke="rgb(0%, 0%, 0%)" stroke-opacity="1" stroke-miterlimit="2" d="M 179.515625 251.765625 L 188.119792 254.854167 " transform="matrix(0.75, 0, 0, 0.75, 0, 0)"/>
</g>
<g clip-path="url(#clip-8-61d3197f)">
<path fill="none" stroke-width="3" stroke-linecap="butt" stroke-linejoin="miter" stroke="rgb(0%, 0%, 0%)" stroke-opacity="1" stroke-miterlimit="2" d="M 188.119792 254.854167 L 196.729167 255.911458 " transform="matrix(0.75, 0, 0, 0.75, 0, 0)"/>
</g>
<g clip-path="url(#clip-9-61d3197f)">
<path fill="none" stroke-width="3" stroke-linecap="butt" stroke-linejoin="miter" stroke="rgb(0%, 0%, 0%)" stroke-opacity="1" stroke-miterlimit="2" d="M 196.729167 255.911458 L 205.333333 254.854167 " transform="matrix(0.75, 0, 0, 0.75, 0, 0)"/>
</g>
<g clip-path="url(#clip-10-61d3197f)">
<path fill="none" stroke-width="3" stroke-linecap="butt" stroke-linejoin="miter" stroke="rgb(0%, 0%, 0%)" stroke-opacity="1" stroke-miterlimit="2" d="M 205.333333 254.854167 L 213.9375 251.765625 " transform="matrix(0.75, 0, 0, 0.75, 0, 0)"/>
</g>
<g clip-path="url(#clip-11-61d3197f)">
<path fill="none" stroke-width="3" stroke-linecap="butt" stroke-linejoin="miter" stroke="rgb(0%, 0%, 0%)" stroke-opacity="1" stroke-miterlimit="2" d="M 213.9375 251.765625 L 222.546875 246.854167 " transform="matrix(0.75, 0, 0, 0.75, 0, 0)"/>
</g>
<path fill="none" stroke-width="3" stroke-linecap="butt" stroke-linejoin="miter" stroke="rgb(0%, 0%, 0%)" stroke-opacity="1" stroke-miterlimit="2" d="M 222.546875 246.854167 L 231.151042 240.453125 " transform="matrix(0.75, 0, 0, 0.75, 0, 0)"/>
<path fill="none" stroke-width="3" stroke-linecap="butt" stroke-linejoin="miter" stroke="rgb(0%, 0%, 0%)" stroke-opacity="1" stroke-miterlimit="2" d="M 231.151042 240.453125 L 239.755208 233 " transform="matrix(0.75, 0, 0, 0.75, 0, 0)"/>
<path fill="none" stroke-width="3" stroke-linecap="butt" stroke-linejoin="miter" stroke="rgb(0%, 0%, 0%)" stroke-opacity="1" stroke-miterlimit="2" d="M 239.755208 233 L 248.364583 225 " transform="matrix(0.75, 0, 0, 0.75, 0, 0)"/>
<path fill="none" stroke-width="3" stroke-linecap="butt" stroke-linejoin="miter" stroke="rgb(0%, 0%, 0%)" stroke-opacity="1" stroke-miterlimit="2" d="M 248.364583 225 L 256.96875 217 " transform="matrix(0.75, 0, 0, 0.75, 0, 0)"/>
<path fill="none" stroke-width="3" stroke-linecap="butt" stroke-linejoin="miter" stroke="rgb(0%, 0%, 0%)" stroke-opacity="1" stroke-miterlimit="2" d="M 256.96875 217 L 265.578125 209.546875 " transform="matrix(0.75, 0, 0, 0.75, 0, 0)"/>
<path fill="none" stroke-width="3" stroke-linecap="butt" stroke-linejoin="miter" stroke="rgb(0%, 0%, 0%)" stroke-opacity="1" stroke-miterlimit="2" d="M 265.578125 209.546875 L 274.182292 203.145833 " transform="matrix(0.75, 0, 0, 0.75, 0, 0)"/>
<g clip-path="url(#clip-12-61d3197f)">
<path fill="none" stroke-width="3" stroke-linecap="butt" stroke-linejoin="miter" stroke="rgb(0%, 0%, 0%)" stroke-opacity="1" stroke-miterlimit="2" d="M 274.182292 203.145833 L 282.786458 198.234375 " transform="matrix(0.75, 0, 0, 0.75, 0, 0)"/>
</g>
<g clip-path="url(#clip-13-61d3197f)">
<path fill="none" stroke-width="3" stroke-linecap="butt" stroke-linejoin="miter" stroke="rgb(0%, 0%, 0%)" stroke-opacity="1" stroke-miterlimit="2" d="M 282.786458 198.234375 L 291.395833 195.145833 " transform="matrix(0.75, 0, 0, 0.75, 0, 0)"/>
</g>
<g clip-path="url(#clip-14-61d3197f)">
<path fill="none" stroke-width="3" stroke-linecap="butt" stroke-linejoin="miter" stroke="rgb(0%, 0%, 0%)" stroke-opacity="1" stroke-miterlimit="2" d="M 291.395833 195.145833 L 300 194.088542 " transform="matrix(0.75, 0, 0, 0.75, 0, 0)"/>
</g>
<g clip-path="url(#clip-15-61d3197f)">
<path fill="none" stroke-width="3" stroke-linecap="butt" stroke-linejoin="miter" stroke="rgb(0%, 0%, 0%)" stroke-opacity="1" stroke-miterlimit="2" d="M 300 194.088542 L 308.604167 195.145833 " transform="matrix(0.75, 0, 0, 0.75, 0, 0)"/>
</g>
<g clip-path="url(#clip-16-61d3197f)">
<path fill="none" stroke-width="3" stroke-linecap="butt" stroke-linejoin="miter" stroke="rgb(0%, 0%, 0%)" stroke-opacity="1" stroke-miterlimit="2" d="M 308.604167 195.145833 L 317.213542 198.234375 " transform="matrix(0.75, 0, 0, 0.75, 0, 0)"/>
</g>
<g clip-path="url(#clip-17-61d3197f)">
<path fill="none" stroke-width="3" stroke-linecap="butt" stroke-linejoin="miter" stroke="rgb(0%, 0%, 0%)" stroke-opacity="1" stroke-miterlimit="2" d="M 317.213542 198.234375 L 325.817708 203.145833 " transform="matrix(0.75, 0, 0, 0.75, 0, 0)"/>
</g>
<path fill="none" stroke-width="3" stroke-linecap="butt" stroke-linejoin="miter" stroke="rgb(0%, 0%, 0%)" stroke-opacity="1" stroke-miterlimit="2" d="M 325.817708 203.145833 L 334.421875 209.546875 " transform="matrix(0.75, 0, 0, 0.75, 0, 0)"/>
<path fill="none" stroke-width="3" stroke-linecap="butt" stroke-linejoin="miter" stroke="rgb(0%, 0%, 0%)" stroke-opacity="1" stroke-miterlimit="2" d="M 334.421875 209.546875 L 343.03125 217 " transform="matrix(0.75, 0, 0, 0.75, 0, 0)"/>
<path fill="none" stroke-width="3" stroke-linecap="butt" stroke-linejoin="miter" stroke="rgb(0%, 0%, 0%)" stroke-opacity="1" stroke-miterlimit="2" d="M 343.03125 217 L 351.635417 225 " transform="matrix(0.75, 0, 0, 0.75, 0, 0)"/>
<path fill="none" stroke-width="3" stroke-linecap="butt" stroke-linejoin="miter" stroke="rgb(0%, 0%, 0%)" stroke-opacity="1" stroke-miterlimit="2" d="M 351.635417 225 L 360.244792 233 " transform="matrix(0.75, 0, 0, 0.75, 0, 0)"/>
<path fill="none" stroke-width="3" stroke-linecap="butt" stroke-linejoin="miter" stroke="rgb(0%, 0%, 0%)" stroke-opacity="1" stroke-miterlimit="2" d="M 360.244792 233 L 368.848958 240.453125 " transform="matrix(0.75, 0, 0, 0.75, 0, 0)"/>
<path fill="none" stroke-width="3" stroke-linecap="butt" stroke-linejoin="miter" stroke="rgb(0%, 0%, 0%)" stroke-opacity="1" stroke-miterlimit="2" d="M 368.848958 240.453125 L 377.453125 246.854167 " transform="matrix(0.75, 0, 0, 0.75, 0, 0)"/>
<g clip-path="url(#clip-18-61d3197f)">
<path fill="none" stroke-width="3" stroke-linecap="butt" stroke-linejoin="miter" stroke="rgb(0%, 0%, 0%)" stroke-opacity="1" stroke-miterlimit="2" d="M 377.453125 246.854167 L 386.0625 251.765625 " transform="matrix(0.75, 0, 0, 0.75, 0, 0)"/>
</g>
<g clip-path="url(#clip-19-61d3197f)">
<path fill="none" stroke-width="3" stroke-linecap="butt" stroke-linejoin="miter" stroke="rgb(0%, 0%, 0%)" stroke-opacity="1" stroke-miterlimit="2" d="M 386.0625 251.765625 L 394.666667 254.854167 " transform="matrix(0.75, 0, 0, 0.75, 0, 0)"/>
</g>
<g clip-path="url(#clip-20-61d3197f)">
<path fill="none" stroke-width="3" stroke-linecap="butt" stroke-linejoin="miter" stroke="rgb(0%, 0%, 0%)" stroke-opacity="1" stroke-miterlimit="2" d="M 394.666667 254.854167 L 403.270833 255.911458 " transform="matrix(0.75, 0, 0, 0.75, 0, 0)"/>
</g>
<g clip-path="url(#clip-21-61d3197f)">
<path fill="none" stroke-width="3" stroke-linecap="butt" stroke-linejoin="miter" stroke="rgb(0%, 0%, 0%)" stroke-opacity="1" stroke-miterlimit="2" d="M 403.270833 255.911458 L 411.880208 254.854167 " transform="matrix(0.75, 0, 0, 0.75, 0, 0)"/>
</g>
<g clip-path="url(#clip-22-61d3197f)">
<path fill="none" stroke-width="3" stroke-linecap="butt" stroke-linejoin="miter" stroke="rgb(0%, 0%, 0%)" stroke-opacity="1" stroke-miterlimit="2" d="M 411.880208 254.854167 L 420.484375 251.765625 " transform="matrix(0.75, 0, 0, 0.75, 0, 0)"/>
</g>
<g clip-path="url(#clip-23-61d3197f)">
<path fill="none" stroke-width="3" stroke-linecap="butt" stroke-linejoin="miter" stroke="rgb(0%, 0%, 0%)" stroke-opacity="1" stroke-miterlimit="2" d="M 420.484375 251.765625 L 429.088542 246.854167 " transform="matrix(0.75, 0, 0, 0.75, 0, 0)"/>
</g>
<path fill="none" stroke-width="3" stroke-linecap="butt" stroke-linejoin="miter" stroke="rgb(0%, 0%, 0%)" stroke-opacity="1" stroke-miterlimit="2" d="M 429.088542 246.854167 L 437.697917 240.453125 " transform="matrix(0.75, 0, 0, 0.75, 0, 0)"/>
<path fill="none" stroke-width="3" stroke-linecap="butt" stroke-linejoin="miter" stroke="rgb(0%, 0%, 0%)" stroke-opacity="1" stroke-miterlimit="2" d="M 437.697917 240.453125 L 446.302083 233 " transform="matrix(0.75, 0, 0, 0.75, 0, 0)"/>
<path fill="none" stroke-width="3" stroke-linecap="butt" stroke-linejoin="miter" stroke="rgb(0%, 0%, 0%)" stroke-opacity="1" stroke-miterlimit="2" d="M 446.302083 233 L 454.911458 225 " transform="matrix(0.75, 0, 0, 0.75, 0, 0)"/>
<path fill="none" stroke-width="3" stroke-linecap="butt" stroke-linejoin="miter" stroke="rgb(0%, 0%, 0%)" stroke-opacity="1" stroke-miterlimit="2" d="M 454.911458 225 L 463.515625 217 " transform="matrix(0.75, 0, 0, 0.75, 0, 0)"/>
<path fill="none" stroke-width="3" stroke-linecap="butt" stroke-linejoin="miter" stroke="rgb(0%, 0%, 0%)" stroke-opacity="1" stroke-miterlimit="2" d="M 463.515625 217 L 472.119792 209.546875 " transform="matrix(0.75, 0, 0, 0.75, 0, 0)"/>
<path fill="none" stroke-width="3" stroke-linecap="butt" stroke-linejoin="miter" stroke="rgb(0%, 0%, 0%)" stroke-opacity="1" stroke-miterlimit="2" d="M 472.119792 209.546875 L 480.729167 203.145833 " transform="matrix(0.75, 0, 0, 0.75, 0, 0)"/>
<g clip-path="url(#clip-24-61d3197f)">
<path fill="none" stroke-width="3" stroke-linecap="butt" stroke-linejoin="miter" stroke="rgb(0%, 0%, 0%)" stroke-opacity="1" stroke-miterlimit="2" d="M 480.729167 203.145833 L 489.333333 198.234375 " transform="matrix(0.75, 0, 0, 0.75, 0, 0)"/>
</g>
<g clip-path="url(#clip-25-61d3197f)">
<path fill="none" stroke-width="3" stroke-linecap="butt" stroke-linejoin="miter" stroke="rgb(0%, 0%, 0%)" stroke-opacity="1" stroke-miterlimit="2" d="M 489.333333 198.234375 L 497.9375 195.145833 " transform="matrix(0.75, 0, 0, 0.75, 0, 0)"/>
</g>
<g clip-path="url(#clip-26-61d3197f)">
<path fill="none" stroke-width="3" stroke-linecap="butt" stroke-linejoin="miter" stroke="rgb(0%, 0%, 0%)" stroke-opacity="1" stroke-miterlimit="2" d="M 497.9375 195.145833 L 506.546875 194.088542 " transform="matrix(0.75, 0, 0, 0.75, 0, 0)"/>
</g>
<g clip-path="url(#clip-27-61d3197f)">
<path fill="none" stroke-width="3" stroke-linecap="butt" stroke-linejoin="miter" stroke="rgb(0%, 0%, 0%)" stroke-opacity="1" stroke-miterlimit="2" d="M 506.546875 194.088542 L 515.151042 195.145833 " transform="matrix(0.75, 0, 0, 0.75, 0, 0)"/>
</g>
<g clip-path="url(#clip-28-61d3197f)">
<path fill="none" stroke-width="3" stroke-linecap="butt" stroke-linejoin="miter" stroke="rgb(0%, 0%, 0%)" stroke-opacity="1" stroke-miterlimit="2" d="M 515.151042 195.145833 L 523.755208 198.234375 " transform="matrix(0.75, 0, 0, 0.75, 0, 0)"/>
</g>
<g clip-path="url(#clip-29-61d3197f)">
<path fill="none" stroke-width="3" stroke-linecap="butt" stroke-linejoin="miter" stroke="rgb(0%, 0%, 0%)" stroke-opacity="1" stroke-miterlimit="2" d="M 523.755208 198.234375 L 532.364583 203.145833 " transform="matrix(0.75, 0, 0, 0.75, 0, 0)"/>
</g>
<path fill="none" stroke-width="3" stroke-linecap="butt" stroke-linejoin="miter" stroke="rgb(0%, 0%, 0%)" stroke-opacity="1" stroke-miterlimit="2" d="M 532.364583 203.145833 L 540.96875 209.546875 " transform="matrix(0.75, 0, 0, 0.75, 0, 0)"/>
<path fill="none" stroke-width="3" stroke-linecap="butt" stroke-linejoin="miter" stroke="rgb(0%, 0%, 0%)" stroke-opacity="1" stroke-miterlimit="2" d="M 540.96875 209.546875 L 549.578125 217 " transform="matrix(0.75, 0, 0, 0.75, 0, 0)"/>
<path fill="none" stroke-width="3" stroke-linecap="butt" stroke-linejoin="miter" stroke="rgb(0%, 0%, 0%)" stroke-opacity="1" stroke-miterlimit="2" d="M 549.578125 217 L 558.182292 225 " transform="matrix(0.75, 0, 0, 0.75, 0, 0)"/>
</svg>
