<?xml version="1.0" encoding="UTF-8"?>
<svg xmlns="http://www.w3.org/2000/svg" xmlns:xlink="http://www.w3.org/1999/xlink" width="450pt" height="338pt" viewBox="0 0 450 338" version="1.1">
<g id="surface1-712AWYN4">
<path style=" stroke:none;fill-rule:nonzero;fill:rgb(100%,100%,100%);fill-opacity:1;" d="M 0 0 L 450 0 L 450 337.5 L 0 337.5 Z M 0 0 "/>
<path style="fill:none;stroke-width:2;stroke-linecap:butt;stroke-linejoin:miter;stroke:rgb(0%,0%,0%);stroke-opacity:1;stroke-miterlimit:2;" d="M 41.817708 225 L 50.421875 198.203125 " transform="matrix(0.75,0,0,0.75,0,0)"/>
<path style="fill:none;stroke-width:2;stroke-linecap:butt;stroke-linejoin:miter;stroke:rgb(0%,0%,0%);stroke-opacity:1;stroke-miterlimit:2;" d="M 50.421875 198.203125 L 59.03125 172.578125 " transform="matrix(0.75,0,0,0.75,0,0)"/>
<path style="fill:none;stroke-width:2;stroke-linecap:butt;stroke-linejoin:miter;stroke:rgb(0%,0%,0%);stroke-opacity:1;stroke-miterlimit:2;" d="M 59.03125 172.578125 L 67.635417 149.239583 " transform="matrix(0.75,0,0,0.75,0,0)"/>
<path style="fill:none;stroke-width:2;stroke-linecap:butt;stroke-linejoin:miter;stroke:rgb(0%,0%,0%);stroke-opacity:1;stroke-miterlimit:2;" d="M 67.635417 149.239583 L 76.244792 129.21875 " transform="matrix(0.75,0,0,0.75,0,0)"/>
<path style="fill:none;stroke-width:2;stroke-linecap:butt;stroke-linejoin:miter;stroke:rgb(0%,0%,0%);stroke-opacity:1;stroke-miterlimit:2;" d="M 76.244792 129.21875 L 84.848958 113.380208 " transform="matrix(0.75,0,0,0.75,0,0)"/>
<path style="fill:none;stroke-width:2;stroke-linecap:butt;stroke-linejoin:miter;stroke:rgb(0%,0%,0%);stroke-opacity:1;stroke-miterlimit:2;" d="M 84.848958 113.380208 L 93.453125 102.421875 " transform="matrix(0.75,0,0,0.75,0,0)"/>
<path style="fill:none;stroke-width:2;stroke-linecap:butt;stroke-linejoin:miter;stroke:rgb(0%,0%,0%);stroke-opacity:1;stroke-miterlimit:2;" d="M 93.453125 102.421875 L 102.0625 96.817708 " transform="matrix(0.75,0,0,0.75,0,0)"/>
<path style="fill:none;stroke-width:2;stroke-linecap:butt;stroke-linejoin:miter;stroke:rgb(0%,0%,0%);stroke-opacity:1;stroke-miterlimit:2;" d="M 102.0625 96.817708 L 110.666667 96.817708 " transform="matrix(0.75,0,0,0.75,0,0)"/>
<path style="fill:none;stroke-width:2;stroke-linecap:butt;stroke-linejoin:miter;stroke:rgb(0%,0%,0%);stroke-opacity:1;stroke-miterlimit:2;" d="M 110.666667 96.817708 L 119.270833 102.421875 " transform="matrix(0.75,0,0,0.75,0,0)"/>
<path style="fill:none;stroke-width:2;stroke-linecap:butt;stroke-linejoin:miter;stroke:rgb(0%,0%,0%);stroke-opacity:1;stroke-miterlimit:2;" d="M 119.270833 102.421875 L 127.880208 113.380208 " transform="matrix(0.75,0,0,0.75,0,0)"/>
<path style="fill:none;stroke-width:2;stroke-linecap:butt;stroke-linejoin:miter;stroke:rgb(0%,0%,0%);stroke-opacity:1;stroke-miterlimit:2;" d="M 127.880208 113.380208 L 136.484375 129.21875 " transform="matrix(0.75,0,0,0.75,0,0)"/>
<path style="fill:none;stroke-width:2;stroke-linecap:butt;stroke-linejoin:miter;stroke:rgb(0%,0%,0%);stroke-opacity:1;stroke-miterlimit:2;" d="M 136.484375 129.21875 L 145.088542 149.239583 " transform="matrix(0.75,0,0,0.75,0,0)"/>
<path style="fill:none;stroke-width:2;stroke-linecap:butt;stroke-linejoin:miter;stroke:rgb(0%,0%,0%);stroke-opacity:1;stroke-miterlimit:2;" d="M 145.088542 149.239583 L 153.697917 172.578125 " transform="matrix(0.75,0,0,0.75,0,0)"/>
<path style="fill:none;stroke-width:2;stroke-linecap:butt;stroke-linejoin:miter;stroke:rgb(0%,0%,0%);stroke-opacity:1;stroke-miterlimit:2;" d="M 153.697917 172.578125 L 162.302083 198.203125 " transform="matrix(0.75,0,0,0.75,0,0)"/>
<path style="fill:none;stroke-width:2;stroke-linecap:butt;stroke-linejoin:miter;stroke:rgb(0%,0%,0%);stroke-opacity:1;stroke-miterlimit:2;" d="M 162.302083 198.203125 L 170.911458 225 " transform="matrix(0.75,0,0,0.75,0,0)"/>
<path style="fill:none;stroke-width:2;stroke-linecap:butt;stroke-linejoin:miter;stroke:rgb(0%,0%,0%);stroke-opacity:1;stroke-miterlimit:2;" d="M 170.911458 225 L 179.515625 251.796875 " transform="matrix(0.75,0,0,0.75,0,0)"/>
<path style="fill:none;stroke-width:2;stroke-linecap:butt;stroke-linejoin:miter;stroke:rgb(0%,0%,0%);stroke-opacity:1;stroke-miterlimit:2;" d="M 179.515625 251.796875 L 188.119792 277.421875 " transform="matrix(0.75,0,0,0.75,0,0)"/>
<path style="fill:none;stroke-width:2;stroke-linecap:butt;stroke-linejoin:miter;stroke:rgb(0%,0%,0%);stroke-opacity:1;stroke-miterlimit:2;" d="M 188.119792 277.421875 L 196.729167 300.760417 " transform="matrix(0.75,0,0,0.75,0,0)"/>
<path style="fill:none;stroke-width:2;stroke-linecap:butt;stroke-linejoin:miter;stroke:rgb(0%,0%,0%);stroke-opacity:1;stroke-miterlimit:2;" d="M 196.729167 300.760417 L 205.333333 320.78125 " transform="matrix(0.75,0,0,0.75,0,0)"/>
<path style="fill:none;stroke-width:2;stroke-linecap:butt;stroke-linejoin:miter;stroke:rgb(0%,0%,0%);stroke-opacity:1;stroke-miterlimit:2;" d="M 205.333333 320.78125 L 213.9375 336.619792 " transform="matrix(0.75,0,0,0.75,0,0)"/>
<path style="fill:none;stroke-width:2;stroke-linecap:butt;stroke-linejoin:miter;stroke:rgb(0%,0%,0%);stroke-opacity:1;stroke-miterlimit:2;" d="M 213.9375 336.619792 L 222.546875 347.578125 " transform="matrix(0.75,0,0,0.75,0,0)"/>
<path style="fill:none;stroke-width:2;stroke-linecap:butt;stroke-linejoin:miter;stroke:rgb(0%,0%,0%);stroke-opacity:1;stroke-miterlimit:2;" d="M 222.546875 347.578125 L 231.151042 353.182292 " transform="matrix(0.75,0,0,0.75,0,0)"/>
<path style="fill:none;stroke-width:2;stroke-linecap:butt;stroke-linejoin:miter;stroke:rgb(0%,0%,0%);stroke-opacity:1;stroke-miterlimit:2;" d="M 231.151042 353.182292 L 239.755208 353.182292 " transform="matrix(0.75,0,0,0.75,0,0)"/>
<path style="fill:none;stroke-width:2;stroke-linecap:butt;stroke-linejoin:miter;stroke:rgb(0%,0%,0%);stroke-opacity:1;stroke-miterlimit:2;" d="M 239.755208 353.182292 L 248.364583 347.578125 " transform="matrix(0.75,0,0,0.75,0,0)"/>
<path style="fill:none;stroke-width:2;stroke-linecap:butt;stroke-linejoin:miter;stroke:rgb(0%,0%,0%);stroke-opacity:1;stroke-miterlimit:2;" d="M 248.364583 347.578125 L 256.96875 336.619792 " transform="matrix(0.75,0,0,0.75,0,0)"/>
<path style="fill:none;stroke-width:2;stroke-linecap:butt;stroke-linejoin:miter;stroke:rgb(0%,0%,0%);stroke-opacity:1;stroke-miterlimit:2;" d="M 256.96875 336.619792 L 265.578125 320.78125 " transform="matrix(0.75,0,0,0.75,0,0)"/>
<path style="fill:none;stroke-width:2;stroke-linecap:butt;stroke-linejoin:miter;stroke:rgb(0%,0%,0%);stroke-opacity:1;stroke-miterlimit:2;" d="M 265.578125 320.78125 L 274.182292 300.760417 " transform="matrix(0.75,0,0,0.75,0,0)"/>
<path style="fill:none;stroke-width:2;stroke-linecap:butt;stroke-linejoin:miter;stroke:rgb(0%,0%,0%);stroke-opacity:1;stroke-miterlimit:2;" d="M 274.182292 300.760417 L 282.786458 277.421875 " transform="matrix(0.75,0,0,0.75,0,0)"/>
<path style="fill:none;stroke-width:2;stroke-linecap:butt;stroke-linejoin:miter;stroke:rgb(0%,0%,0%);stroke-opacity:1;stroke-miterlimit:2;" d="M 282.786458 277.421875 L 291.395833 251.796875 " transform="matrix(0.75,0,0,0.75,0,0)"/>
<path style="fill:none;stroke-width:2;stroke-linecap:butt;stroke-linejoin:miter;stroke:rgb(0%,0%,0%);stroke-opacity:1;stroke-miterlimit:2;" d="M 291.395833 251.796875 L 300 225 " transform="matrix(0.75,0,0,0.75,0,0)"/>
<path style="fill:none;stroke-width:2;stroke-linecap:butt;stroke-linejoin:miter;stroke:rgb(0%,0%,0%);stroke-opacity:1;stroke-miterlimit:2;" d="M 300 225 L 308.604167 198.203125 " transform="matrix(0.75,0,0,0.75,0,0)"/>
<path style="fill:none;stroke-width:2;stroke-linecap:butt;stroke-linejoin:miter;stroke:rgb(0%,0%,0%);stroke-opacity:1;stroke-miterlimit:2;" d="M 308.604167 198.203125 L 317.213542 172.578125 " transform="matrix(0.75,0,0,0.75,0,0)"/>
<path style="fill:none;stroke-width:2;stroke-linecap:butt;stroke-linejoin:miter;stroke:rgb(0%,0%,0%);stroke-opacity:1;stroke-miterlimit:2;" d="M 317.213542 172.578125 L 325.817708 149.239583 " transform="matrix(0.75,0,0,0.75,0,0)"/>
<path style="fill:none;stroke-width:2;stroke-linecap:butt;stroke-linejoin:miter;stroke:rgb(0%,0%,0%);stroke-opacity:1;stroke-miterlimit:2;" d="M 325.817708 149.239583 L 334.421875 129.21875 " transform="matrix(0.75,0,0,0.75,0,0)"/>
<path style="fill:none;stroke-width:2;stroke-linecap:butt;stroke-linejoin:miter;stroke:rgb(0%,0%,0%);stroke-opacity:1;stroke-miterlimit:2;" d="M 334.421875 129.21875 L 343.03125 113.380208 " transform="matrix(0.75,0,0,0.75,0,0)"/>
<path style="fill:none;stroke-width:2;stroke-linecap:butt;stroke-linejoin:miter;stroke:rgb(0%,0%,0%);stroke-opacity:1;stroke-miterlimit:2;" d="M 343.03125 113.380208 L 351.635417 102.421875 " transform="matrix(0.75,0,0,0.75,0,0)"/>
<path style="fill:none;stroke-width:2;stroke-linecap:butt;stroke-linejoin:miter;stroke:rgb(0%,0%,0%);stroke-opacity:1;stroke-miterlimit:2;" d="M 351.635417 102.421875 L 360.244792 96.817708 " transform="matrix(0.75,0,0,0.75,0,0)"/>
<path style="fill:none;stroke-width:2;stroke-linecap:butt;stroke-linejoin:miter;stroke:rgb(0%,0%,0%);stroke-opacity:1;stroke-miterlimit:2;" d="M 360.244792 96.817708 L 368.848958 96.817708 " transform="matrix(0.75,0,0,0.75,0,0)"/>
<path style="fill:none;stroke-width:2;stroke-linecap:butt;stroke-linejoin:miter;stroke:rgb(0%,0%,0%);stroke-opacity:1;stroke-miterlimit:2;" d="M 368.848958 96.817708 L 377.453125 102.421875 " transform="matrix(0.75,0,0,0.75,0,0)"/>
<path style="fill:none;stroke-width:2;stroke-linecap:butt;stroke-linejoin:miter;stroke:rgb(0%,0%,0%);stroke-opacity:1;stroke-miterlimit:2;" d="M 377.453125 102.421875 L 386.0625 113.380208 " transform="matrix(0.75,0,0,0.75,0,0)"/>
<path style="fill:none;stroke-width:2;stroke-linecap:butt;stroke-linejoin:miter;stroke:rgb(0%,0%,0%);stroke-opacity:1;stroke-miterlimit:2;" d="M 386.0625 113.380208 L 394.666667 129.21875 " transform="matrix(0.75,0,0,0.75,0,0)"/>
<path style="fill:none;stroke-width:2;stroke-linecap:butt;stroke-linejoin:miter;stroke:rgb(0%,0%,0%);stroke-opacity:1;stroke-miterlimit:2;" d="M 394.666667 129.21875 L 403.270833 149.239583 " transform="matrix(0.75,0,0,0.75,0,0)"/>
<path style="fill:none;stroke-width:2;stroke-linecap:butt;stroke-linejoin:miter;stroke:rgb(0%,0%,0%);stroke-opacity:1;stroke-miterlimit:2;" d="M 403.270833 149.239583 L 411.880208 172.578125 " transform="matrix(0.75,0,0,0.75,0,0)"/>
<path style="fill:none;stroke-width:2;stroke-linecap:butt;stroke-linejoin:miter;stroke:rgb(0%,0%,0%);stroke-opacity:1;stroke-miterlimit:2;" d="M 411.880208 172.578125 L 420.484375 198.203125 " transform="matrix(0.75,0,0,0.75,0,0)"/>
<path style="fill:none;stroke-width:2;stroke-linecap:butt;stroke-linejoin:miter;stroke:rgb(0%,0%,0%);stroke-opacity:1;stroke-miterlimit:2;" d="M 420.484375 198.203125 L 429.088542 225 " transform="matrix(0.75,0,0,0.75,0,0)"/>
<path style="fill:none;stroke-width:2;stroke-linecap:butt;stroke-linejoin:miter;stroke:rgb(0%,0%,0%);stroke-opacity:1;stroke-miterlimit:2;" d="M 429.088542 225 L 437.697917 251.796875 " transform="matrix(0.75,0,0,0.75,0,0)"/>
<path style="fill:none;stroke-width:2;stroke-linecap:butt;stroke-linejoin:miter;stroke:rgb(0%,0%,0%);stroke-opacity:1;stroke-miterlimit:2;" d="M 437.697917 251.796875 L 446.302083 277.421875 " transform="matrix(0.75,0,0,0.75,0,0)"/>
<path style="fill:none;stroke-width:2;stroke-linecap:butt;stroke-linejoin:miter;stroke:rgb(0%,0%,0%);stroke-opacity:1;stroke-miterlimit:2;" d="M 446.302083 277.421875 L 454.911458 300.760417 " transform="matrix(0.75,0,0,0.75,0,0)"/>
<path style="fill:none;stroke-width:2;stroke-linecap:butt;stroke-linejoin:miter;stroke:rgb(0%,0%,0%);stroke-opacity:1;stroke-miterlimit:2;" d="M 454.911458 300.760417 L 463.515625 320.78125 " transform="matrix(0.75,0,0,0.75,0,0)"/>
<path style="fill:none;stroke-width:2;stroke-linecap:butt;stroke-linejoin:miter;stroke:rgb(0%,0%,0%);stroke-opacity:1;stroke-miterlimit:2;" d="M 463.515625 320.78125 L 472.119792 336.619792 " transform="matrix(0.75,0,0,0.75,0,0)"/>
<path style="fill:none;stroke-width:2;stroke-linecap:butt;stroke-linejoin:miter;stroke:rgb(0%,0%,0%);stroke-opacity:1;stroke-miterlimit:2;" d="M 472.119792 336.619792 L 480.729167 347.578125 " transform="matrix(0.75,0,0,0.75,0,0)"/>
<path style="fill:none;stroke-width:2;stroke-linecap:butt;stroke-linejoin:miter;stroke:rgb(0%,0%,0%);stroke-opacity:1;stroke-miterlimit:2;" d="M 480.729167 347.578125 L 489.333333 353.182292 " transform="matrix(0.75,0,0,0.75,0,0)"/>
<path style="fill:none;stroke-width:2;stroke-linecap:butt;stroke-linejoin:miter;stroke:rgb(0%,0%,0%);stroke-opacity:1;stroke-miterlimit:2;" d="M 489.333333 353.182292 L 497.9375 353.182292 " transform="matrix(0.75,0,0,0.75,0,0)"/>
<path style="fill:none;stroke-width:2;stroke-linecap:butt;stroke-linejoin:miter;stroke:rgb(0%,0%,0%);stroke-opacity:1;stroke-miterlimit:2;" d="M 497.9375 353.182292 L 506.546875 347.578125 " transform="matrix(0.75,0,0,0.75,0,0)"/>
<path style="fill:none;stroke-width:2;stroke-linecap:butt;stroke-linejoin:miter;stroke:rgb(0%,0%,0%);stroke-opacity:1;stroke-miterlimit:2;" d="M 506.546875 347.578125 L 515.151042 336.619792 " transform="matrix(0.75,0,0,0.75,0,0)"/>
<path style="fill:none;stroke-width:2;stroke-linecap:butt;stroke-linejoin:miter;stroke:rgb(0%,0%,0%);stroke-opacity:1;stroke-miterlimit:2;" d="M 515.151042 336.619792 L 523.755208 320.78125 " transform="matrix(0.75,0,0,0.75,0,0)"/>
<path style="fill:none;stroke-width:2;stroke-linecap:butt;stroke-linejoin:miter;stroke:rgb(0%,0%,0%);stroke-opacity:1;stroke-miterlimit:2;" d="M 523.755208 320.78125 L 532.364583 300.760417 " transform="matrix(0.75,0,0,0.75,0,0)"/>
<path style="fill:none;stroke-width:2;stroke-linecap:butt;stroke-linejoin:miter;stroke:rgb(0%,0%,0%);stroke-opacity:1;stroke-miterlimit:2;" d="M 532.364583 300.760417 L 540.96875 277.421875 " transform="matrix(0.75,0,0,0.75,0,0)"/>
<path style="fill:none;stroke-width:2;stroke-linecap:butt;stroke-linejoin:miter;stroke:rgb(0%,0%,0%);stroke-opacity:1;stroke-miterlimit:2;" d="M 540.96875 277.421875 L 549.578125 251.796875 " transform="matrix(0.75,0,0,0.75,0,0)"/>
<path style="fill:none;stroke-width:2;stroke-linecap:butt;stroke-linejoin:miter;stroke:rgb(0%,0%,0%);stroke-opacity:1;stroke-miterlimit:2;" d="M 549.578125 251.796875 L 558.182292 225 " transform="matrix(0.75,0,0,0.75,0,0)"/>
<path style=" stroke:none;fill-rule:nonzero;fill:rgb(100%,38.82353%,27.843139%);fill-opacity:1;" d="M 33.214844 168.75 C 33.214844 166.28125 29.511719 166.28125 29.511719 168.75 C 29.511719 171.21875 33.214844 171.21875 33.214844 168.75 Z M 33.214844 168.75 "/>
<path style=" stroke:none;fill-rule:nonzero;fill:rgb(100%,38.82353%,27.843139%);fill-opacity:1;" d="M 39.667969 148.652344 C 39.667969 146.183594 35.96875 146.183594 35.96875 148.652344 C 35.96875 151.121094 39.667969 151.121094 39.667969 148.652344 Z M 39.667969 148.652344 "/>
<path style=" stroke:none;fill-rule:nonzero;fill:rgb(100%,38.82353%,27.843139%);fill-opacity:1;" d="M 46.125 129.433594 C 46.125 126.964844 42.421875 126.964844 42.421875 129.433594 C 42.421875 131.898438 46.125 131.898438 46.125 129.433594 Z M 46.125 129.433594 "/>
<path style=" stroke:none;fill-rule:nonzero;fill:rgb(100%,38.82353%,27.843139%);fill-opacity:1;" d="M 52.578125 111.929688 C 52.578125 109.464844 48.875 109.464844 48.875 111.929688 C 48.875 114.398438 52.578125 114.398438 52.578125 111.929688 Z M 52.578125 111.929688 "/>
<path style=" stroke:none;fill-rule:nonzero;fill:rgb(100%,38.82353%,27.843139%);fill-opacity:1;" d="M 59.03125 96.914062 C 59.03125 94.445312 55.332031 94.445312 55.332031 96.914062 C 55.332031 99.378906 59.03125 99.378906 59.03125 96.914062 Z M 59.03125 96.914062 "/>
<path style=" stroke:none;fill-rule:nonzero;fill:rgb(100%,38.82353%,27.843139%);fill-opacity:1;" d="M 65.488281 85.035156 C 65.488281 82.566406 61.785156 82.566406 61.785156 85.035156 C 61.785156 87.503906 65.488281 87.503906 65.488281 85.035156 Z M 65.488281 85.035156 "/>
<path style=" stroke:none;fill-rule:nonzero;fill:rgb(100%,38.82353%,27.843139%);fill-opacity:1;" d="M 71.941406 76.816406 C 71.941406 74.347656 68.242188 74.347656 68.242188 76.816406 C 68.242188 79.28125 71.941406 79.28125 71.941406 76.816406 Z M 71.941406 76.816406 "/>
<path style=" stroke:none;fill-rule:nonzero;fill:rgb(100%,38.82353%,27.843139%);fill-opacity:1;" d="M 78.394531 72.613281 C 78.394531 70.144531 74.695312 70.144531 74.695312 72.613281 C 74.695312 75.082031 78.394531 75.082031 78.394531 72.613281 Z M 78.394531 72.613281 "/>
<path style=" stroke:none;fill-rule:nonzero;fill:rgb(100%,38.82353%,27.843139%);fill-opacity:1;" d="M 84.851562 72.613281 C 84.851562 70.144531 81.148438 70.144531 81.148438 72.613281 C 81.148438 75.082031 84.851562 75.082031 84.851562 72.613281 Z M 84.851562 72.613281 "/>
<path style=" stroke:none;fill-rule:nonzero;fill:rgb(100%,38.82353%,27.843139%);fill-opacity:1;" d="M 91.304688 76.816406 C 91.304688 74.347656 87.605469 74.347656 87.605469 76.816406 C 87.605469 79.28125 91.304688 79.28125 91.304688 76.816406 Z M 91.304688 76.816406 "/>
<path style=" stroke:none;fill-rule:nonzero;fill:rgb(100%,38.82353%,27.843139%);fill-opacity:1;" d="M 97.757812 85.035156 C 97.757812 82.566406 94.058594 82.566406 94.058594 85.035156 C 94.058594 87.503906 97.757812 87.503906 97.757812 85.035156 Z M 97.757812 85.035156 "/>
<path style=" stroke:none;fill-rule:nonzero;fill:rgb(100%,38.82353%,27.843139%);fill-opacity:1;" d="M 104.214844 96.914062 C 104.214844 94.445312 100.511719 94.445312 100.511719 96.914062 C 100.511719 99.378906 104.214844 99.378906 104.214844 96.914062 Z M 104.214844 96.914062 "/>
<path style=" stroke:none;fill-rule:nonzero;fill:rgb(100%,38.82353%,27.843139%);fill-opacity:1;" d="M 110.667969 111.929688 C 110.667969 109.464844 106.96875 109.464844 106.96875 111.929688 C 106.96875 114.398438 110.667969 114.398438 110.667969 111.929688 Z M 110.667969 111.929688 "/>
<path style=" stroke:none;fill-rule:nonzero;fill:rgb(100%,38.82353%,27.843139%);fill-opacity:1;" d="M 117.125 129.433594 C 117.125 126.964844 113.421875 126.964844 113.421875 129.433594 C 113.421875 131.898438 117.125 131.898438 117.125 129.433594 Z M 117.125 129.433594 "/>
<path style=" stroke:none;fill-rule:nonzero;fill:rgb(100%,38.82353%,27.843139%);fill-opacity:1;" d="M 123.578125 148.652344 C 123.578125 146.183594 119.875 146.183594 119.875 148.652344 C 119.875 151.121094 123.578125 151.121094 123.578125 148.652344 Z M 123.578125 148.652344 "/>
<path style=" stroke:none;fill-rule:nonzero;fill:rgb(100%,38.82353%,27.843139%);fill-opacity:1;" d="M 130.03125 168.75 C 130.03125 166.28125 126.332031 166.28125 126.332031 168.75 C 126.332031 171.21875 130.03125 171.21875 130.03125 168.75 Z M 130.03125 168.75 "/>
<path style=" stroke:none;fill-rule:nonzero;fill:rgb(100%,38.82353%,27.843139%);fill-opacity:1;" d="M 136.488281 188.847656 C 136.488281 186.378906 132.785156 186.378906 132.785156 188.847656 C 132.785156 191.316406 136.488281 191.316406 136.488281 188.847656 Z M 136.488281 188.847656 "/>
<path style=" stroke:none;fill-rule:nonzero;fill:rgb(100%,38.82353%,27.843139%);fill-opacity:1;" d="M 142.941406 208.066406 C 142.941406 205.601562 139.242188 205.601562 139.242188 208.066406 C 139.242188 210.535156 142.941406 210.535156 142.941406 208.066406 Z M 142.941406 208.066406 "/>
<path style=" stroke:none;fill-rule:nonzero;fill:rgb(100%,38.82353%,27.843139%);fill-opacity:1;" d="M 149.394531 225.570312 C 149.394531 223.101562 145.695312 223.101562 145.695312 225.570312 C 145.695312 228.035156 149.394531 228.035156 149.394531 225.570312 Z M 149.394531 225.570312 "/>
<path style=" stroke:none;fill-rule:nonzero;fill:rgb(100%,38.82353%,27.843139%);fill-opacity:1;" d="M 155.851562 240.585938 C 155.851562 238.121094 152.148438 238.121094 152.148438 240.585938 C 152.148438 243.054688 155.851562 243.054688 155.851562 240.585938 Z M 155.851562 240.585938 "/>
<path style=" stroke:none;fill-rule:nonzero;fill:rgb(100%,38.82353%,27.843139%);fill-opacity:1;" d="M 162.304688 252.464844 C 162.304688 249.996094 158.605469 249.996094 158.605469 252.464844 C 158.605469 254.933594 162.304688 254.933594 162.304688 252.464844 Z M 162.304688 252.464844 "/>
<path style=" stroke:none;fill-rule:nonzero;fill:rgb(100%,38.82353%,27.843139%);fill-opacity:1;" d="M 168.757812 260.683594 C 168.757812 258.21875 165.058594 258.21875 165.058594 260.683594 C 165.058594 263.152344 168.757812 263.152344 168.757812 260.683594 Z M 168.757812 260.683594 "/>
<path style=" stroke:none;fill-rule:nonzero;fill:rgb(100%,38.82353%,27.843139%);fill-opacity:1;" d="M 175.214844 264.886719 C 175.214844 262.417969 171.511719 262.417969 171.511719 264.886719 C 171.511719 267.355469 175.214844 267.355469 175.214844 264.886719 Z M 175.214844 264.886719 "/>
<path style=" stroke:none;fill-rule:nonzero;fill:rgb(100%,38.82353%,27.843139%);fill-opacity:1;" d="M 181.667969 264.886719 C 181.667969 262.417969 177.96875 262.417969 177.96875 264.886719 C 177.96875 267.355469 181.667969 267.355469 181.667969 264.886719 Z M 181.667969 264.886719 "/>
<path style=" stroke:none;fill-rule:nonzero;fill:rgb(100%,38.82353%,27.843139%);fill-opacity:1;" d="M 188.125 260.683594 C 188.125 258.21875 184.421875 258.21875 184.421875 260.683594 C 184.421875 263.152344 188.125 263.152344 188.125 260.683594 Z M 188.125 260.683594 "/>
<path style=" stroke:none;fill-rule:nonzero;fill:rgb(100%,38.82353%,27.843139%);fill-opacity:1;" d="M 194.578125 252.464844 C 194.578125 249.996094 190.875 249.996094 190.875 252.464844 C 190.875 254.933594 194.578125 254.933594 194.578125 252.464844 Z M 194.578125 252.464844 "/>
<path style=" stroke:none;fill-rule:nonzero;fill:rgb(100%,38.82353%,27.843139%);fill-opacity:1;" d="M 201.03125 240.585938 C 201.03125 238.121094 197.332031 238.121094 197.332031 240.585938 C 197.332031 243.054688 201.03125 243.054688 201.03125 240.585938 Z M 201.03125 240.585938 "/>
<path style=" stroke:none;fill-rule:nonzero;fill:rgb(100%,38.82353%,27.843139%);fill-opacity:1;" d="M 207.488281 225.570312 C 207.488281 223.101562 203.785156 223.101562 203.785156 225.570312 C 203.785156 228.035156 207.488281 228.035156 207.488281 225.570312 Z M 207.488281 225.570312 "/>
<path style=" stroke:none;fill-rule:nonzero;fill:rgb(100%,38.82353%,27.843139%);fill-opacity:1;" d="M 213.941406 208.066406 C 213.941406 205.601562 210.242188 205.601562 210.242188 208.066406 C 210.242188 210.535156 213.941406 210.535156 213.941406 208.066406 Z M 213.941406 208.066406 "/>
<path style=" stroke:none;fill-rule:nonzero;fill:rgb(100%,38.82353%,27.843139%);fill-opacity:1;" d="M 220.394531 188.847656 C 220.394531 186.378906 216.695312 186.378906 216.695312 188.847656 C 216.695312 191.316406 220.394531 191.316406 220.394531 188.847656 Z M 220.394531 188.847656 "/>
<path style=" stroke:none;fill-rule:nonzero;fill:rgb(100%,38.82353%,27.843139%);fill-opacity:1;" d="M 226.851562 168.75 C 226.851562 166.28125 223.148438 166.28125 223.148438 168.75 C 223.148438 171.21875 226.851562 171.21875 226.851562 168.75 Z M 226.851562 168.75 "/>
<path style=" stroke:none;fill-rule:nonzero;fill:rgb(100%,38.82353%,27.843139%);fill-opacity:1;" d="M 233.304688 148.652344 C 233.304688 146.183594 229.605469 146.183594 229.605469 148.652344 C 229.605469 151.121094 233.304688 151.121094 233.304688 148.652344 Z M 233.304688 148.652344 "/>
<path style=" stroke:none;fill-rule:nonzero;fill:rgb(100%,38.82353%,27.843139%);fill-opacity:1;" d="M 239.757812 129.433594 C 239.757812 126.964844 236.058594 126.964844 236.058594 129.433594 C 236.058594 131.898438 239.757812 131.898438 239.757812 129.433594 Z M 239.757812 129.433594 "/>
<path style=" stroke:none;fill-rule:nonzero;fill:rgb(100%,38.82353%,27.843139%);fill-opacity:1;" d="M 246.214844 111.929688 C 246.214844 109.464844 242.511719 109.464844 242.511719 111.929688 C 242.511719 114.398438 246.214844 114.398438 246.214844 111.929688 Z M 246.214844 111.929688 "/>
<path style=" stroke:none;fill-rule:nonzero;fill:rgb(100%,38.82353%,27.843139%);fill-opacity:1;" d="M 252.667969 96.914062 C 252.667969 94.445312 248.96875 94.445312 248.96875 96.914062 C 248.96875 99.378906 252.667969 99.378906 252.667969 96.914062 Z M 252.667969 96.914062 "/>
<path style=" stroke:none;fill-rule:nonzero;fill:rgb(100%,38.82353%,27.843139%);fill-opacity:1;" d="M 259.125 85.035156 C 259.125 82.566406 255.421875 82.566406 255.421875 85.035156 C 255.421875 87.503906 259.125 87.503906 259.125 85.035156 Z M 259.125 85.035156 "/>
<path style=" stroke:none;fill-rule:nonzero;fill:rgb(100%,38.82353%,27.843139%);fill-opacity:1;" d="M 265.578125 76.816406 C 265.578125 74.347656 261.875 74.347656 261.875 76.816406 C 261.875 79.28125 265.578125 79.28125 265.578125 76.816406 Z M 265.578125 76.816406 "/>
<path style=" stroke:none;fill-rule:nonzero;fill:rgb(100%,38.82353%,27.843139%);fill-opacity:1;" d="M 272.03125 72.613281 C 272.03125 70.144531 268.332031 70.144531 268.332031 72.613281 C 268.332031 75.082031 272.03125 75.082031 272.03125 72.613281 Z M 272.03125 72.613281 "/>
<path style=" stroke:none;fill-rule:nonzero;fill:rgb(100%,38.82353%,27.843139%);fill-opacity:1;" d="M 278.488281 72.613281 C 278.488281 70.144531 274.785156 70.144531 274.785156 72.613281 C 274.785156 75.082031 278.488281 75.082031 278.488281 72.613281 Z M 278.488281 72.613281 "/>
<path style=" stroke:none;fill-rule:nonzero;fill:rgb(100%,38.82353%,27.843139%);fill-opacity:1;" d="M 284.941406 76.816406 C 284.941406 74.347656 281.242188 74.347656 281.242188 76.816406 C 281.242188 79.28125 284.941406 79.28125 284.941406 76.816406 Z M 284.941406 76.816406 "/>
<path style=" stroke:none;fill-rule:nonzero;fill:rgb(100%,38.82353%,27.843139%);fill-opacity:1;" d="M 291.394531 85.035156 C 291.394531 82.566406 287.695312 82.566406 287.695312 85.035156 C 287.695312 87.503906 291.394531 87.503906 291.394531 85.035156 Z M 291.394531 85.035156 "/>
<path style=" stroke:none;fill-rule:nonzero;fill:rgb(100%,38.82353%,27.843139%);fill-opacity:1;" d="M 297.851562 96.914062 C 297.851562 94.445312 294.148438 94.445312 294.148438 96.914062 C 294.148438 99.378906 297.851562 99.378906 297.851562 96.914062 Z M 297.851562 96.914062 "/>
<path style=" stroke:none;fill-rule:nonzero;fill:rgb(100%,38.82353%,27.843139%);fill-opacity:1;" d="M 304.304688 111.929688 C 304.304688 109.464844 300.605469 109.464844 300.605469 111.929688 C 300.605469 114.398438 304.304688 114.398438 304.304688 111.929688 Z M 304.304688 111.929688 "/>
<path style=" stroke:none;fill-rule:nonzero;fill:rgb(100%,38.82353%,27.843139%);fill-opacity:1;" d="M 310.757812 129.433594 C 310.757812 126.964844 307.058594 126.964844 307.058594 129.433594 C 307.058594 131.898438 310.757812 131.898438 310.757812 129.433594 Z M 310.757812 129.433594 "/>
<path style=" stroke:none;fill-rule:nonzero;fill:rgb(100%,38.82353%,27.843139%);fill-opacity:1;" d="M 317.214844 148.652344 C 317.214844 146.183594 313.511719 146.183594 313.511719 148.652344 C 313.511719 151.121094 317.214844 151.121094 317.214844 148.652344 Z M 317.214844 148.652344 "/>
<path style=" stroke:none;fill-rule:nonzero;fill:rgb(100%,38.82353%,27.843139%);fill-opacity:1;" d="M 323.667969 168.75 C 323.667969 166.28125 319.96875 166.28125 319.96875 168.75 C 319.96875 171.21875 323.667969 171.21875 323.667969 168.75 Z M 323.667969 168.75 "/>
<path style=" stroke:none;fill-rule:nonzero;fill:rgb(100%,38.82353%,27.843139%);fill-opacity:1;" d="M 330.125 188.847656 C 330.125 186.378906 326.421875 186.378906 326.421875 188.847656 C 326.421875 191.316406 330.125 191.316406 330.125 188.847656 Z M 330.125 188.847656 "/>
<path style=" stroke:none;fill-rule:nonzero;fill:rgb(100%,38.82353%,27.843139%);fill-opacity:1;" d="M 336.578125 208.066406 C 336.578125 205.601562 332.875 205.601562 332.875 208.066406 C 332.875 210.535156 336.578125 210.535156 336.578125 208.066406 Z M 336.578125 208.066406 "/>
<path style=" stroke:none;fill-rule:nonzero;fill:rgb(100%,38.82353%,27.843139%);fill-opacity:1;" d="M 343.03125 225.570312 C 343.03125 223.101562 339.332031 223.101562 339.332031 225.570312 C 339.332031 228.035156 343.03125 228.035156 343.03125 225.570312 Z M 343.03125 225.570312 "/>
<path style=" stroke:none;fill-rule:nonzero;fill:rgb(100%,38.82353%,27.843139%);fill-opacity:1;" d="M 349.488281 240.585938 C 349.488281 238.121094 345.785156 238.121094 345.785156 240.585938 C 345.785156 243.054688 349.488281 243.054688 349.488281 240.585938 Z M 349.488281 240.585938 "/>
<path style=" stroke:none;fill-rule:nonzero;fill:rgb(100%,38.82353%,27.843139%);fill-opacity:1;" d="M 355.941406 252.464844 C 355.941406 249.996094 352.242188 249.996094 352.242188 252.464844 C 352.242188 254.933594 355.941406 254.933594 355.941406 252.464844 Z M 355.941406 252.464844 "/>
<path style=" stroke:none;fill-rule:nonzero;fill:rgb(100%,38.82353%,27.843139%);fill-opacity:1;" d="M 362.394531 260.683594 C 362.394531 258.21875 358.695312 258.21875 358.695312 260.683594 C 358.695312 263.152344 362.394531 263.152344 362.394531 260.683594 Z M 362.394531 260.683594 "/>
<path style=" stroke:none;fill-rule:nonzero;fill:rgb(100%,38.82353%,27.843139%);fill-opacity:1;" d="M 368.851562 264.886719 C 368.851562 262.417969 365.148438 262.417969 365.148438 264.886719 C 365.148438 267.355469 368.851562 267.355469 368.851562 264.886719 Z M 368.851562 264.886719 "/>
<path style=" stroke:none;fill-rule:nonzero;fill:rgb(100%,38.82353%,27.843139%);fill-opacity:1;" d="M 375.304688 264.886719 C 375.304688 262.417969 371.605469 262.417969 371.605469 264.886719 C 371.605469 267.355469 375.304688 267.355469 375.304688 264.886719 Z M 375.304688 264.886719 "/>
<path style=" stroke:none;fill-rule:nonzero;fill:rgb(100%,38.82353%,27.843139%);fill-opacity:1;" d="M 381.757812 260.683594 C 381.757812 258.21875 378.058594 258.21875 378.058594 260.683594 C 378.058594 263.152344 381.757812 263.152344 381.757812 260.683594 Z M 381.757812 260.683594 "/>
<path style=" stroke:none;fill-rule:nonzero;fill:rgb(100%,38.82353%,27.843139%);fill-opacity:1;" d="M 388.214844 252.464844 C 388.214844 249.996094 384.511719 249.996094 384.511719 252.464844 C 384.511719 254.933594 388.214844 254.933594 388.214844 252.464844 Z M 388.214844 252.464844 "/>
<path style=" stroke:none;fill-rule:nonzero;fill:rgb(100%,38.82353%,27.843139%);fill-opacity:1;" d="M 394.667969 240.585938 C 394.667969 238.121094 390.96875 238.121094 390.96875 240.585938 C 390.96875 243.054688 394.667969 243.054688 394.667969 240.585938 Z M 394.667969 240.585938 "/>
<path style=" stroke:none;fill-rule:nonzero;fill:rgb(100%,38.82353%,27.843139%);fill-opacity:1;" d="M 401.125 225.570312 C 401.125 223.101562 397.421875 223.101562 397.421875 225.570312 C 397.421875 228.035156 401.125 228.035156 401.125 225.570312 Z M 401.125 225.570312 "/>
<path style=" stroke:none;fill-rule:nonzero;fill:rgb(100%,38.82353%,27.843139%);fill-opacity:1;" d="M 407.578125 208.066406 C 407.578125 205.601562 403.875 205.601562 403.875 208.066406 C 403.875 210.535156 407.578125 210.535156 407.578125 208.066406 Z M 407.578125 208.066406 "/>
<path style=" stroke:none;fill-rule:nonzero;fill:rgb(100%,38.82353%,27.843139%);fill-opacity:1;" d="M 414.03125 188.847656 C 414.03125 186.378906 410.332031 186.378906 410.332031 188.847656 C 410.332031 191.316406 414.03125 191.316406 414.03125 188.847656 Z M 414.03125 188.847656 "/>
<path style=" stroke:none;fill-rule:nonzero;fill:rgb(100%,38.82353%,27.843139%);fill-opacity:1;" d="M 420.488281 168.75 C 420.488281 166.28125 416.785156 166.28125 416.785156 168.75 C 416.785156 171.21875 420.488281 171.21875 420.488281 168.75 Z M 420.488281 168.75 "/>
</g>
</svg>
